<mxfile host="app.diagrams.net" agent="Mozilla/5.0 (Macintosh; Intel Mac OS X 10_15_7) AppleWebKit/537.36 (KHTML, like Gecko) Chrome/131.0.0.0 Safari/537.36" version="25.0.1">
  <diagram name="第 1 页" id="YZJgM_QNRQ_rqV0jffy0">
    <mxGraphModel dx="717" dy="748" grid="1" gridSize="10" guides="1" tooltips="1" connect="1" arrows="1" fold="1" page="1" pageScale="1" pageWidth="1100" pageHeight="850" background="#FFFFFF" math="0" shadow="0">
      <root>
        <mxCell id="0" />
        <mxCell id="1" parent="0" />
        <mxCell id="su5PDg1l_TLm0L7Ap9I_-8" value="&lt;font style=&quot;font-size: 15px;&quot;&gt;STUDENT&lt;/font&gt;" style="rounded=0;whiteSpace=wrap;html=1;" parent="1" vertex="1">
          <mxGeometry x="240" y="363" width="90" height="30" as="geometry" />
        </mxCell>
        <mxCell id="su5PDg1l_TLm0L7Ap9I_-15" value="Semester" style="ellipse;whiteSpace=wrap;html=1;" parent="1" vertex="1">
          <mxGeometry x="510" y="155" width="80" height="30" as="geometry" />
        </mxCell>
        <mxCell id="su5PDg1l_TLm0L7Ap9I_-16" value="&lt;u&gt;&lt;font style=&quot;font-size: 14px;&quot;&gt;student_Id&lt;/font&gt;&lt;/u&gt;" style="ellipse;whiteSpace=wrap;html=1;" parent="1" vertex="1">
          <mxGeometry x="120" y="303" width="80" height="30" as="geometry" />
        </mxCell>
        <mxCell id="su5PDg1l_TLm0L7Ap9I_-1" value="&lt;font style=&quot;font-size: 15px;&quot;&gt;CLASS&lt;/font&gt;" style="rounded=0;whiteSpace=wrap;html=1;container=0;" parent="1" vertex="1">
          <mxGeometry x="570" y="260" width="90" height="30" as="geometry" />
        </mxCell>
        <mxCell id="su5PDg1l_TLm0L7Ap9I_-2" value="&lt;u&gt;&lt;font style=&quot;font-size: 14px;&quot;&gt;class_id&lt;/font&gt;&lt;/u&gt;" style="ellipse;whiteSpace=wrap;html=1;container=0;" parent="1" vertex="1">
          <mxGeometry x="615" y="150" width="80" height="30" as="geometry" />
        </mxCell>
        <mxCell id="su5PDg1l_TLm0L7Ap9I_-20" value="&lt;font style=&quot;font-size: 15px;&quot;&gt;TAKE&lt;/font&gt;" style="rhombus;whiteSpace=wrap;html=1;" parent="1" vertex="1">
          <mxGeometry x="370" y="280" width="150" height="60" as="geometry" />
        </mxCell>
        <mxCell id="su5PDg1l_TLm0L7Ap9I_-22" value="&lt;font style=&quot;font-size: 15px;&quot;&gt;TEACH&lt;/font&gt;" style="rhombus;whiteSpace=wrap;html=1;" parent="1" vertex="1">
          <mxGeometry x="420" y="435" width="160" height="60" as="geometry" />
        </mxCell>
        <mxCell id="su5PDg1l_TLm0L7Ap9I_-23" value="&lt;font style=&quot;font-size: 14px;&quot;&gt;time&lt;/font&gt;" style="ellipse;whiteSpace=wrap;html=1;container=0;" parent="1" vertex="1">
          <mxGeometry x="720" y="260" width="80" height="30" as="geometry" />
        </mxCell>
        <mxCell id="su5PDg1l_TLm0L7Ap9I_-27" value="" style="endArrow=none;html=1;rounded=0;exitX=1;exitY=0.5;exitDx=0;exitDy=0;entryX=0;entryY=0.5;entryDx=0;entryDy=0;" parent="1" source="su5PDg1l_TLm0L7Ap9I_-8" target="su5PDg1l_TLm0L7Ap9I_-20" edge="1">
          <mxGeometry width="50" height="50" relative="1" as="geometry">
            <mxPoint x="450" y="393" as="sourcePoint" />
            <mxPoint x="500" y="343" as="targetPoint" />
          </mxGeometry>
        </mxCell>
        <mxCell id="su5PDg1l_TLm0L7Ap9I_-28" value="" style="endArrow=none;html=1;rounded=0;entryX=1;entryY=0.5;entryDx=0;entryDy=0;exitX=0;exitY=0.5;exitDx=0;exitDy=0;" parent="1" source="su5PDg1l_TLm0L7Ap9I_-1" target="su5PDg1l_TLm0L7Ap9I_-20" edge="1">
          <mxGeometry width="50" height="50" relative="1" as="geometry">
            <mxPoint x="450" y="393" as="sourcePoint" />
            <mxPoint x="500" y="343" as="targetPoint" />
          </mxGeometry>
        </mxCell>
        <mxCell id="su5PDg1l_TLm0L7Ap9I_-30" value="" style="endArrow=none;html=1;rounded=0;exitX=1;exitY=0.5;exitDx=0;exitDy=0;entryX=0;entryY=0.5;entryDx=0;entryDy=0;" parent="1" source="su5PDg1l_TLm0L7Ap9I_-22" target="su5PDg1l_TLm0L7Ap9I_-1" edge="1">
          <mxGeometry width="50" height="50" relative="1" as="geometry">
            <mxPoint x="450" y="393" as="sourcePoint" />
            <mxPoint x="500" y="343" as="targetPoint" />
          </mxGeometry>
        </mxCell>
        <mxCell id="su5PDg1l_TLm0L7Ap9I_-32" value="" style="endArrow=none;html=1;rounded=0;exitX=0;exitY=0.5;exitDx=0;exitDy=0;entryX=0.5;entryY=1;entryDx=0;entryDy=0;" parent="1" source="su5PDg1l_TLm0L7Ap9I_-8" target="su5PDg1l_TLm0L7Ap9I_-16" edge="1">
          <mxGeometry width="50" height="50" relative="1" as="geometry">
            <mxPoint x="450" y="393" as="sourcePoint" />
            <mxPoint x="500" y="343" as="targetPoint" />
          </mxGeometry>
        </mxCell>
        <mxCell id="su5PDg1l_TLm0L7Ap9I_-33" value="" style="endArrow=none;html=1;rounded=0;exitX=0.35;exitY=-0.075;exitDx=0;exitDy=0;entryX=0.5;entryY=1;entryDx=0;entryDy=0;exitPerimeter=0;" parent="1" source="su5PDg1l_TLm0L7Ap9I_-1" target="su5PDg1l_TLm0L7Ap9I_-15" edge="1">
          <mxGeometry width="50" height="50" relative="1" as="geometry">
            <mxPoint x="870" y="260" as="sourcePoint" />
            <mxPoint x="560" y="285" as="targetPoint" />
          </mxGeometry>
        </mxCell>
        <mxCell id="su5PDg1l_TLm0L7Ap9I_-34" value="" style="endArrow=none;html=1;rounded=0;exitX=0.75;exitY=0;exitDx=0;exitDy=0;entryX=0.5;entryY=1;entryDx=0;entryDy=0;" parent="1" source="su5PDg1l_TLm0L7Ap9I_-1" target="su5PDg1l_TLm0L7Ap9I_-2" edge="1">
          <mxGeometry width="50" height="50" relative="1" as="geometry">
            <mxPoint x="870" y="260" as="sourcePoint" />
            <mxPoint x="930" y="220" as="targetPoint" />
          </mxGeometry>
        </mxCell>
        <mxCell id="su5PDg1l_TLm0L7Ap9I_-36" value="" style="endArrow=none;html=1;rounded=0;exitX=1;exitY=0.5;exitDx=0;exitDy=0;entryX=0;entryY=0.5;entryDx=0;entryDy=0;" parent="1" source="su5PDg1l_TLm0L7Ap9I_-1" target="su5PDg1l_TLm0L7Ap9I_-23" edge="1">
          <mxGeometry width="50" height="50" relative="1" as="geometry">
            <mxPoint x="870" y="260" as="sourcePoint" />
            <mxPoint x="950" y="240" as="targetPoint" />
          </mxGeometry>
        </mxCell>
        <mxCell id="su5PDg1l_TLm0L7Ap9I_-37" value="" style="endArrow=none;html=1;rounded=0;exitX=0.5;exitY=1;exitDx=0;exitDy=0;entryX=0.5;entryY=0;entryDx=0;entryDy=0;" parent="1" source="su5PDg1l_TLm0L7Ap9I_-1" target="Pghm_PCXs0bWWb-cuDt3-39" edge="1">
          <mxGeometry width="50" height="50" relative="1" as="geometry">
            <mxPoint x="840" y="408" as="sourcePoint" />
            <mxPoint x="767.5" y="453" as="targetPoint" />
          </mxGeometry>
        </mxCell>
        <mxCell id="su5PDg1l_TLm0L7Ap9I_-38" value="&lt;font&gt;STUDENT&lt;/font&gt;" style="text;strokeColor=none;fillColor=none;html=1;fontSize=15;fontStyle=1;verticalAlign=middle;align=left;" parent="1" vertex="1">
          <mxGeometry x="170" y="2150" width="100" height="40" as="geometry" />
        </mxCell>
        <mxCell id="su5PDg1l_TLm0L7Ap9I_-44" value="" style="shape=table;startSize=0;container=1;collapsible=0;childLayout=tableLayout;fontSize=15;" parent="1" vertex="1">
          <mxGeometry x="170" y="2190" width="700" height="30" as="geometry" />
        </mxCell>
        <mxCell id="su5PDg1l_TLm0L7Ap9I_-45" value="" style="shape=tableRow;horizontal=0;startSize=0;swimlaneHead=0;swimlaneBody=0;strokeColor=inherit;top=0;left=0;bottom=0;right=0;collapsible=0;dropTarget=0;fillColor=none;points=[[0,0.5],[1,0.5]];portConstraint=eastwest;fontSize=15;" parent="su5PDg1l_TLm0L7Ap9I_-44" vertex="1">
          <mxGeometry width="700" height="30" as="geometry" />
        </mxCell>
        <mxCell id="su5PDg1l_TLm0L7Ap9I_-46" value="&lt;font&gt;&lt;u&gt;student_id&lt;/u&gt;&lt;/font&gt;" style="shape=partialRectangle;html=1;whiteSpace=wrap;connectable=0;strokeColor=inherit;overflow=hidden;fillColor=none;top=0;left=0;bottom=0;right=0;pointerEvents=1;fontSize=15;" parent="su5PDg1l_TLm0L7Ap9I_-45" vertex="1">
          <mxGeometry width="100" height="30" as="geometry">
            <mxRectangle width="100" height="30" as="alternateBounds" />
          </mxGeometry>
        </mxCell>
        <mxCell id="gSTcRpvYbXPPoBZ5fAX7-35" value="&lt;span&gt;student_name&lt;/span&gt;" style="shape=partialRectangle;html=1;whiteSpace=wrap;connectable=0;strokeColor=inherit;overflow=hidden;fillColor=none;top=0;left=0;bottom=0;right=0;pointerEvents=1;fontSize=15;" parent="su5PDg1l_TLm0L7Ap9I_-45" vertex="1">
          <mxGeometry x="100" width="100" height="30" as="geometry">
            <mxRectangle width="100" height="30" as="alternateBounds" />
          </mxGeometry>
        </mxCell>
        <mxCell id="gSTcRpvYbXPPoBZ5fAX7-36" value="&lt;span&gt;school&lt;/span&gt;" style="shape=partialRectangle;html=1;whiteSpace=wrap;connectable=0;strokeColor=inherit;overflow=hidden;fillColor=none;top=0;left=0;bottom=0;right=0;pointerEvents=1;fontSize=15;" parent="su5PDg1l_TLm0L7Ap9I_-45" vertex="1">
          <mxGeometry x="200" width="100" height="30" as="geometry">
            <mxRectangle width="100" height="30" as="alternateBounds" />
          </mxGeometry>
        </mxCell>
        <mxCell id="gSTcRpvYbXPPoBZ5fAX7-37" value="&lt;span&gt;grade&lt;/span&gt;" style="shape=partialRectangle;html=1;whiteSpace=wrap;connectable=0;strokeColor=inherit;overflow=hidden;fillColor=none;top=0;left=0;bottom=0;right=0;pointerEvents=1;fontSize=15;" parent="su5PDg1l_TLm0L7Ap9I_-45" vertex="1">
          <mxGeometry x="300" width="100" height="30" as="geometry">
            <mxRectangle width="100" height="30" as="alternateBounds" />
          </mxGeometry>
        </mxCell>
        <mxCell id="gSTcRpvYbXPPoBZ5fAX7-38" value="&lt;span&gt;tel&lt;/span&gt;" style="shape=partialRectangle;html=1;whiteSpace=wrap;connectable=0;strokeColor=inherit;overflow=hidden;fillColor=none;top=0;left=0;bottom=0;right=0;pointerEvents=1;fontSize=15;" parent="su5PDg1l_TLm0L7Ap9I_-45" vertex="1">
          <mxGeometry x="400" width="100" height="30" as="geometry">
            <mxRectangle width="100" height="30" as="alternateBounds" />
          </mxGeometry>
        </mxCell>
        <mxCell id="gSTcRpvYbXPPoBZ5fAX7-39" value="&lt;span&gt;address&lt;/span&gt;" style="shape=partialRectangle;html=1;whiteSpace=wrap;connectable=0;strokeColor=inherit;overflow=hidden;fillColor=none;top=0;left=0;bottom=0;right=0;pointerEvents=1;fontSize=15;" parent="su5PDg1l_TLm0L7Ap9I_-45" vertex="1">
          <mxGeometry x="500" width="100" height="30" as="geometry">
            <mxRectangle width="100" height="30" as="alternateBounds" />
          </mxGeometry>
        </mxCell>
        <mxCell id="gSTcRpvYbXPPoBZ5fAX7-40" value="&lt;span&gt;status&lt;/span&gt;" style="shape=partialRectangle;html=1;whiteSpace=wrap;connectable=0;strokeColor=inherit;overflow=hidden;fillColor=none;top=0;left=0;bottom=0;right=0;pointerEvents=1;fontSize=15;" parent="su5PDg1l_TLm0L7Ap9I_-45" vertex="1">
          <mxGeometry x="600" width="100" height="30" as="geometry">
            <mxRectangle width="100" height="30" as="alternateBounds" />
          </mxGeometry>
        </mxCell>
        <mxCell id="su5PDg1l_TLm0L7Ap9I_-114" value="&lt;span&gt;TEACHER&lt;/span&gt;" style="text;strokeColor=none;fillColor=none;html=1;fontSize=15;fontStyle=1;verticalAlign=middle;align=left;" parent="1" vertex="1">
          <mxGeometry x="170" y="2260" width="100" height="40" as="geometry" />
        </mxCell>
        <mxCell id="su5PDg1l_TLm0L7Ap9I_-115" value="" style="shape=table;startSize=0;container=1;collapsible=0;childLayout=tableLayout;fontSize=15;" parent="1" vertex="1">
          <mxGeometry x="170" y="2300" width="500" height="30" as="geometry" />
        </mxCell>
        <mxCell id="su5PDg1l_TLm0L7Ap9I_-116" value="" style="shape=tableRow;horizontal=0;startSize=0;swimlaneHead=0;swimlaneBody=0;strokeColor=inherit;top=0;left=0;bottom=0;right=0;collapsible=0;dropTarget=0;fillColor=none;points=[[0,0.5],[1,0.5]];portConstraint=eastwest;fontSize=15;" parent="su5PDg1l_TLm0L7Ap9I_-115" vertex="1">
          <mxGeometry width="500" height="30" as="geometry" />
        </mxCell>
        <mxCell id="su5PDg1l_TLm0L7Ap9I_-117" value="&lt;font&gt;&lt;u&gt;teacher_id&lt;/u&gt;&lt;/font&gt;" style="shape=partialRectangle;html=1;whiteSpace=wrap;connectable=0;strokeColor=inherit;overflow=hidden;fillColor=none;top=0;left=0;bottom=0;right=0;pointerEvents=1;fontSize=15;" parent="su5PDg1l_TLm0L7Ap9I_-116" vertex="1">
          <mxGeometry width="100" height="30" as="geometry">
            <mxRectangle width="100" height="30" as="alternateBounds" />
          </mxGeometry>
        </mxCell>
        <mxCell id="su5PDg1l_TLm0L7Ap9I_-118" value="teacher_name" style="shape=partialRectangle;html=1;whiteSpace=wrap;connectable=0;strokeColor=inherit;overflow=hidden;fillColor=none;top=0;left=0;bottom=0;right=0;pointerEvents=1;fontSize=15;" parent="su5PDg1l_TLm0L7Ap9I_-116" vertex="1">
          <mxGeometry x="100" width="100" height="30" as="geometry">
            <mxRectangle width="100" height="30" as="alternateBounds" />
          </mxGeometry>
        </mxCell>
        <mxCell id="su5PDg1l_TLm0L7Ap9I_-119" value="tel" style="shape=partialRectangle;html=1;whiteSpace=wrap;connectable=0;strokeColor=inherit;overflow=hidden;fillColor=none;top=0;left=0;bottom=0;right=0;pointerEvents=1;fontSize=15;" parent="su5PDg1l_TLm0L7Ap9I_-116" vertex="1">
          <mxGeometry x="200" width="100" height="30" as="geometry">
            <mxRectangle width="100" height="30" as="alternateBounds" />
          </mxGeometry>
        </mxCell>
        <mxCell id="su5PDg1l_TLm0L7Ap9I_-143" value="address" style="shape=partialRectangle;html=1;whiteSpace=wrap;connectable=0;strokeColor=inherit;overflow=hidden;fillColor=none;top=0;left=0;bottom=0;right=0;pointerEvents=1;fontSize=15;" parent="su5PDg1l_TLm0L7Ap9I_-116" vertex="1">
          <mxGeometry x="300" width="100" height="30" as="geometry">
            <mxRectangle width="100" height="30" as="alternateBounds" />
          </mxGeometry>
        </mxCell>
        <mxCell id="gSTcRpvYbXPPoBZ5fAX7-41" value="status" style="shape=partialRectangle;html=1;whiteSpace=wrap;connectable=0;strokeColor=inherit;overflow=hidden;fillColor=none;top=0;left=0;bottom=0;right=0;pointerEvents=1;fontSize=15;" parent="su5PDg1l_TLm0L7Ap9I_-116" vertex="1">
          <mxGeometry x="400" width="100" height="30" as="geometry">
            <mxRectangle width="100" height="30" as="alternateBounds" />
          </mxGeometry>
        </mxCell>
        <mxCell id="su5PDg1l_TLm0L7Ap9I_-120" value="&lt;span&gt;CLASS&lt;/span&gt;" style="text;strokeColor=none;fillColor=none;html=1;fontSize=15;fontStyle=1;verticalAlign=middle;align=left;" parent="1" vertex="1">
          <mxGeometry x="170" y="2350" width="100" height="40" as="geometry" />
        </mxCell>
        <mxCell id="su5PDg1l_TLm0L7Ap9I_-121" value="" style="shape=table;startSize=0;container=1;collapsible=0;childLayout=tableLayout;fontSize=15;" parent="1" vertex="1">
          <mxGeometry x="170" y="2390" width="450" height="30" as="geometry" />
        </mxCell>
        <mxCell id="su5PDg1l_TLm0L7Ap9I_-122" value="" style="shape=tableRow;horizontal=0;startSize=0;swimlaneHead=0;swimlaneBody=0;strokeColor=inherit;top=0;left=0;bottom=0;right=0;collapsible=0;dropTarget=0;fillColor=none;points=[[0,0.5],[1,0.5]];portConstraint=eastwest;fontSize=15;" parent="su5PDg1l_TLm0L7Ap9I_-121" vertex="1">
          <mxGeometry width="450" height="30" as="geometry" />
        </mxCell>
        <mxCell id="su5PDg1l_TLm0L7Ap9I_-123" value="&lt;font&gt;&lt;u&gt;class_id&lt;/u&gt;&lt;/font&gt;" style="shape=partialRectangle;html=1;whiteSpace=wrap;connectable=0;strokeColor=inherit;overflow=hidden;fillColor=none;top=0;left=0;bottom=0;right=0;pointerEvents=1;fontSize=15;" parent="su5PDg1l_TLm0L7Ap9I_-122" vertex="1">
          <mxGeometry width="90" height="30" as="geometry">
            <mxRectangle width="90" height="30" as="alternateBounds" />
          </mxGeometry>
        </mxCell>
        <mxCell id="su5PDg1l_TLm0L7Ap9I_-124" value="class_name" style="shape=partialRectangle;html=1;whiteSpace=wrap;connectable=0;strokeColor=inherit;overflow=hidden;fillColor=none;top=0;left=0;bottom=0;right=0;pointerEvents=1;fontSize=15;" parent="su5PDg1l_TLm0L7Ap9I_-122" vertex="1">
          <mxGeometry x="90" width="90" height="30" as="geometry">
            <mxRectangle width="90" height="30" as="alternateBounds" />
          </mxGeometry>
        </mxCell>
        <mxCell id="su5PDg1l_TLm0L7Ap9I_-125" value="semester" style="shape=partialRectangle;html=1;whiteSpace=wrap;connectable=0;strokeColor=inherit;overflow=hidden;fillColor=none;top=0;left=0;bottom=0;right=0;pointerEvents=1;fontSize=15;" parent="su5PDg1l_TLm0L7Ap9I_-122" vertex="1">
          <mxGeometry x="180" width="90" height="30" as="geometry">
            <mxRectangle width="90" height="30" as="alternateBounds" />
          </mxGeometry>
        </mxCell>
        <mxCell id="su5PDg1l_TLm0L7Ap9I_-132" value="time" style="shape=partialRectangle;html=1;whiteSpace=wrap;connectable=0;strokeColor=inherit;overflow=hidden;fillColor=none;top=0;left=0;bottom=0;right=0;pointerEvents=1;fontSize=15;" parent="su5PDg1l_TLm0L7Ap9I_-122" vertex="1">
          <mxGeometry x="270" width="90" height="30" as="geometry">
            <mxRectangle width="90" height="30" as="alternateBounds" />
          </mxGeometry>
        </mxCell>
        <mxCell id="IY9oTwFc11nfq3ERBN3V-43" value="classroom_id" style="shape=partialRectangle;html=1;whiteSpace=wrap;connectable=0;strokeColor=inherit;overflow=hidden;fillColor=none;top=0;left=0;bottom=0;right=0;pointerEvents=1;fontSize=15;" vertex="1" parent="su5PDg1l_TLm0L7Ap9I_-122">
          <mxGeometry x="360" width="90" height="30" as="geometry">
            <mxRectangle width="90" height="30" as="alternateBounds" />
          </mxGeometry>
        </mxCell>
        <mxCell id="su5PDg1l_TLm0L7Ap9I_-126" value="&lt;font&gt;CLASSROOM&lt;/font&gt;" style="text;strokeColor=none;fillColor=none;html=1;fontSize=15;fontStyle=1;verticalAlign=middle;align=left;" parent="1" vertex="1">
          <mxGeometry x="170" y="2450" width="100" height="40" as="geometry" />
        </mxCell>
        <mxCell id="su5PDg1l_TLm0L7Ap9I_-127" value="" style="shape=table;startSize=0;container=1;collapsible=0;childLayout=tableLayout;fontSize=15;" parent="1" vertex="1">
          <mxGeometry x="170" y="2490" width="340" height="30" as="geometry" />
        </mxCell>
        <mxCell id="su5PDg1l_TLm0L7Ap9I_-128" value="" style="shape=tableRow;horizontal=0;startSize=0;swimlaneHead=0;swimlaneBody=0;strokeColor=inherit;top=0;left=0;bottom=0;right=0;collapsible=0;dropTarget=0;fillColor=none;points=[[0,0.5],[1,0.5]];portConstraint=eastwest;fontSize=15;" parent="su5PDg1l_TLm0L7Ap9I_-127" vertex="1">
          <mxGeometry width="340" height="30" as="geometry" />
        </mxCell>
        <mxCell id="su5PDg1l_TLm0L7Ap9I_-129" value="&lt;font&gt;&lt;u&gt;classroom_id&lt;/u&gt;&lt;/font&gt;" style="shape=partialRectangle;html=1;whiteSpace=wrap;connectable=0;strokeColor=inherit;overflow=hidden;fillColor=none;top=0;left=0;bottom=0;right=0;pointerEvents=1;fontSize=15;" parent="su5PDg1l_TLm0L7Ap9I_-128" vertex="1">
          <mxGeometry width="113" height="30" as="geometry">
            <mxRectangle width="113" height="30" as="alternateBounds" />
          </mxGeometry>
        </mxCell>
        <mxCell id="su5PDg1l_TLm0L7Ap9I_-130" value="classroom_name" style="shape=partialRectangle;html=1;whiteSpace=wrap;connectable=0;strokeColor=inherit;overflow=hidden;fillColor=none;top=0;left=0;bottom=0;right=0;pointerEvents=1;fontSize=15;" parent="su5PDg1l_TLm0L7Ap9I_-128" vertex="1">
          <mxGeometry x="113" width="139" height="30" as="geometry">
            <mxRectangle width="139" height="30" as="alternateBounds" />
          </mxGeometry>
        </mxCell>
        <mxCell id="su5PDg1l_TLm0L7Ap9I_-131" value="capacity" style="shape=partialRectangle;html=1;whiteSpace=wrap;connectable=0;strokeColor=inherit;overflow=hidden;fillColor=none;top=0;left=0;bottom=0;right=0;pointerEvents=1;fontSize=15;" parent="su5PDg1l_TLm0L7Ap9I_-128" vertex="1">
          <mxGeometry x="252" width="88" height="30" as="geometry">
            <mxRectangle width="88" height="30" as="alternateBounds" />
          </mxGeometry>
        </mxCell>
        <mxCell id="Pghm_PCXs0bWWb-cuDt3-1" value="&lt;font style=&quot;font-size: 15px;&quot;&gt;TEACHER&lt;/font&gt;" style="rounded=0;whiteSpace=wrap;html=1;" parent="1" vertex="1">
          <mxGeometry x="315" y="540" width="90" height="30" as="geometry" />
        </mxCell>
        <mxCell id="Pghm_PCXs0bWWb-cuDt3-2" value="&lt;font style=&quot;font-size: 15px;&quot;&gt;CLASSROOM&lt;/font&gt;" style="rounded=0;whiteSpace=wrap;html=1;container=0;" parent="1" vertex="1">
          <mxGeometry x="585" y="480" width="110" height="30" as="geometry" />
        </mxCell>
        <mxCell id="Pghm_PCXs0bWWb-cuDt3-3" value="&lt;font style=&quot;font-size: 15px;&quot;&gt;MENTOR&lt;/font&gt;" style="rounded=0;whiteSpace=wrap;html=1;fontSize=14;" parent="1" vertex="1">
          <mxGeometry x="187.5" y="950" width="90" height="30" as="geometry" />
        </mxCell>
        <mxCell id="Pghm_PCXs0bWWb-cuDt3-4" value="&lt;font style=&quot;font-size: 15px;&quot;&gt;AUDIT&lt;/font&gt;" style="rounded=0;whiteSpace=wrap;html=1;fontSize=14;" parent="1" vertex="1">
          <mxGeometry x="470" y="1115" width="90" height="30" as="geometry" />
        </mxCell>
        <mxCell id="Pghm_PCXs0bWWb-cuDt3-5" value="&lt;font style=&quot;font-size: 14px;&quot;&gt;student_name&lt;/font&gt;" style="ellipse;whiteSpace=wrap;html=1;" parent="1" vertex="1">
          <mxGeometry x="20" y="325" width="100" height="30" as="geometry" />
        </mxCell>
        <mxCell id="Pghm_PCXs0bWWb-cuDt3-6" value="&lt;font style=&quot;font-size: 14px;&quot;&gt;school&lt;/font&gt;" style="ellipse;whiteSpace=wrap;html=1;" parent="1" vertex="1">
          <mxGeometry x="10" y="370" width="100" height="30" as="geometry" />
        </mxCell>
        <mxCell id="Pghm_PCXs0bWWb-cuDt3-7" value="&lt;font style=&quot;font-size: 14px;&quot;&gt;grade&lt;/font&gt;" style="ellipse;whiteSpace=wrap;html=1;" parent="1" vertex="1">
          <mxGeometry x="80" y="429" width="100" height="30" as="geometry" />
        </mxCell>
        <mxCell id="Pghm_PCXs0bWWb-cuDt3-8" value="&lt;font style=&quot;font-size: 14px;&quot;&gt;tel&lt;/font&gt;" style="ellipse;whiteSpace=wrap;html=1;" parent="1" vertex="1">
          <mxGeometry x="200" y="439" width="100" height="30" as="geometry" />
        </mxCell>
        <mxCell id="Pghm_PCXs0bWWb-cuDt3-9" value="&lt;font style=&quot;font-size: 14px;&quot;&gt;address&lt;/font&gt;" style="ellipse;whiteSpace=wrap;html=1;" parent="1" vertex="1">
          <mxGeometry x="315" y="439" width="100" height="30" as="geometry" />
        </mxCell>
        <mxCell id="Pghm_PCXs0bWWb-cuDt3-11" value="&lt;font style=&quot;font-size: 14px;&quot;&gt;parent_name&lt;/font&gt;" style="ellipse;whiteSpace=wrap;html=1;" parent="1" vertex="1">
          <mxGeometry x="110" y="150" width="90" height="30" as="geometry" />
        </mxCell>
        <mxCell id="Pghm_PCXs0bWWb-cuDt3-12" value="&lt;font style=&quot;font-size: 14px;&quot;&gt;parent_tel&lt;/font&gt;" style="ellipse;whiteSpace=wrap;html=1;" parent="1" vertex="1">
          <mxGeometry x="365" y="150" width="90" height="30" as="geometry" />
        </mxCell>
        <mxCell id="Pghm_PCXs0bWWb-cuDt3-13" value="&lt;u&gt;&lt;font style=&quot;font-size: 14px;&quot;&gt;teacher_Id&lt;/font&gt;&lt;/u&gt;" style="ellipse;whiteSpace=wrap;html=1;" parent="1" vertex="1">
          <mxGeometry x="80" y="520" width="80" height="30" as="geometry" />
        </mxCell>
        <mxCell id="Pghm_PCXs0bWWb-cuDt3-14" value="&lt;font style=&quot;font-size: 14px;&quot;&gt;teacher_name&lt;/font&gt;" style="ellipse;whiteSpace=wrap;html=1;" parent="1" vertex="1">
          <mxGeometry y="560" width="100" height="30" as="geometry" />
        </mxCell>
        <mxCell id="Pghm_PCXs0bWWb-cuDt3-15" value="&lt;font style=&quot;font-size: 14px;&quot;&gt;tel&lt;/font&gt;" style="ellipse;whiteSpace=wrap;html=1;" parent="1" vertex="1">
          <mxGeometry x="70" y="600" width="100" height="30" as="geometry" />
        </mxCell>
        <mxCell id="Pghm_PCXs0bWWb-cuDt3-16" value="&lt;font style=&quot;font-size: 14px;&quot;&gt;address&lt;/font&gt;" style="ellipse;whiteSpace=wrap;html=1;" parent="1" vertex="1">
          <mxGeometry x="180" y="620" width="100" height="30" as="geometry" />
        </mxCell>
        <mxCell id="Pghm_PCXs0bWWb-cuDt3-17" value="&lt;u&gt;mentor_Id&lt;/u&gt;" style="ellipse;whiteSpace=wrap;html=1;fontSize=14;" parent="1" vertex="1">
          <mxGeometry x="325" y="920" width="80" height="30" as="geometry" />
        </mxCell>
        <mxCell id="Pghm_PCXs0bWWb-cuDt3-18" value="&lt;font&gt;mentor_name&lt;/font&gt;" style="ellipse;whiteSpace=wrap;html=1;fontSize=14;" parent="1" vertex="1">
          <mxGeometry x="200" y="890" width="100" height="30" as="geometry" />
        </mxCell>
        <mxCell id="Pghm_PCXs0bWWb-cuDt3-19" value="tel" style="ellipse;whiteSpace=wrap;html=1;fontSize=14;" parent="1" vertex="1">
          <mxGeometry x="75" y="1000" width="100" height="30" as="geometry" />
        </mxCell>
        <mxCell id="Pghm_PCXs0bWWb-cuDt3-20" value="address" style="ellipse;whiteSpace=wrap;html=1;fontSize=14;" parent="1" vertex="1">
          <mxGeometry x="60" y="950" width="100" height="30" as="geometry" />
        </mxCell>
        <mxCell id="Pghm_PCXs0bWWb-cuDt3-26" value="&lt;u&gt;audit_id&lt;/u&gt;" style="ellipse;whiteSpace=wrap;html=1;fontSize=14;" parent="1" vertex="1">
          <mxGeometry x="470" y="1040" width="80" height="30" as="geometry" />
        </mxCell>
        <mxCell id="Pghm_PCXs0bWWb-cuDt3-27" value="audit_name" style="ellipse;whiteSpace=wrap;html=1;fontSize=14;" parent="1" vertex="1">
          <mxGeometry x="320" y="1080" width="100" height="30" as="geometry" />
        </mxCell>
        <mxCell id="Pghm_PCXs0bWWb-cuDt3-28" value="school" style="ellipse;whiteSpace=wrap;html=1;fontSize=14;" parent="1" vertex="1">
          <mxGeometry x="345" y="1175" width="100" height="30" as="geometry" />
        </mxCell>
        <mxCell id="Pghm_PCXs0bWWb-cuDt3-29" value="grade" style="ellipse;whiteSpace=wrap;html=1;fontSize=14;" parent="1" vertex="1">
          <mxGeometry x="470" y="1200" width="100" height="30" as="geometry" />
        </mxCell>
        <mxCell id="Pghm_PCXs0bWWb-cuDt3-30" value="tel" style="ellipse;whiteSpace=wrap;html=1;fontSize=14;" parent="1" vertex="1">
          <mxGeometry x="610" y="1115" width="100" height="30" as="geometry" />
        </mxCell>
        <mxCell id="Pghm_PCXs0bWWb-cuDt3-31" value="address" style="ellipse;whiteSpace=wrap;html=1;fontSize=14;" parent="1" vertex="1">
          <mxGeometry x="575" y="1065" width="100" height="30" as="geometry" />
        </mxCell>
        <mxCell id="Pghm_PCXs0bWWb-cuDt3-33" value="status" style="ellipse;whiteSpace=wrap;html=1;fontSize=14;" parent="1" vertex="1">
          <mxGeometry x="590" y="1175" width="100" height="30" as="geometry" />
        </mxCell>
        <mxCell id="Pghm_PCXs0bWWb-cuDt3-35" value="&lt;u&gt;&lt;font style=&quot;font-size: 14px;&quot;&gt;classroom_id&lt;/font&gt;&lt;/u&gt;" style="ellipse;whiteSpace=wrap;html=1;" parent="1" vertex="1">
          <mxGeometry x="490" y="550" width="95" height="30" as="geometry" />
        </mxCell>
        <mxCell id="Pghm_PCXs0bWWb-cuDt3-36" value="&lt;font style=&quot;font-size: 14px;&quot;&gt;classroom_name&lt;/font&gt;" style="ellipse;whiteSpace=wrap;html=1;" parent="1" vertex="1">
          <mxGeometry x="620" y="560" width="120" height="30" as="geometry" />
        </mxCell>
        <mxCell id="Pghm_PCXs0bWWb-cuDt3-37" value="&lt;font style=&quot;font-size: 14px;&quot;&gt;capacity&lt;/font&gt;" style="ellipse;whiteSpace=wrap;html=1;" parent="1" vertex="1">
          <mxGeometry x="740" y="500" width="100" height="30" as="geometry" />
        </mxCell>
        <mxCell id="Pghm_PCXs0bWWb-cuDt3-39" value="&lt;font style=&quot;font-size: 15px;&quot;&gt;USE&lt;/font&gt;" style="rhombus;whiteSpace=wrap;html=1;" parent="1" vertex="1">
          <mxGeometry x="590" y="355" width="160" height="60" as="geometry" />
        </mxCell>
        <mxCell id="Pghm_PCXs0bWWb-cuDt3-41" value="" style="endArrow=none;html=1;rounded=0;exitX=0.5;exitY=1;exitDx=0;exitDy=0;entryX=0.423;entryY=0.008;entryDx=0;entryDy=0;entryPerimeter=0;" parent="1" source="Pghm_PCXs0bWWb-cuDt3-39" target="Pghm_PCXs0bWWb-cuDt3-2" edge="1">
          <mxGeometry width="50" height="50" relative="1" as="geometry">
            <mxPoint x="797.5" y="563" as="sourcePoint" />
            <mxPoint x="922.5" y="693" as="targetPoint" />
          </mxGeometry>
        </mxCell>
        <mxCell id="Pghm_PCXs0bWWb-cuDt3-49" value="&lt;font style=&quot;font-size: 15px;&quot;&gt;HAS&lt;/font&gt;" style="shape=rhombus;double=1;perimeter=rhombusPerimeter;whiteSpace=wrap;html=1;align=center;" parent="1" vertex="1">
          <mxGeometry x="225" y="230" width="120" height="60" as="geometry" />
        </mxCell>
        <mxCell id="Pghm_PCXs0bWWb-cuDt3-50" value="&lt;font style=&quot;font-size: 15px;&quot;&gt;PARENT&lt;/font&gt;" style="shape=ext;margin=3;double=1;whiteSpace=wrap;html=1;align=center;" parent="1" vertex="1">
          <mxGeometry x="235" y="145" width="100" height="40" as="geometry" />
        </mxCell>
        <mxCell id="Pghm_PCXs0bWWb-cuDt3-51" value="" style="endArrow=none;html=1;rounded=0;exitX=0.5;exitY=0;exitDx=0;exitDy=0;entryX=0.5;entryY=1;entryDx=0;entryDy=0;" parent="1" source="su5PDg1l_TLm0L7Ap9I_-8" target="Pghm_PCXs0bWWb-cuDt3-49" edge="1">
          <mxGeometry width="50" height="50" relative="1" as="geometry">
            <mxPoint x="250" y="388" as="sourcePoint" />
            <mxPoint x="170" y="343" as="targetPoint" />
          </mxGeometry>
        </mxCell>
        <mxCell id="Pghm_PCXs0bWWb-cuDt3-52" value="" style="endArrow=none;html=1;rounded=0;exitX=0.5;exitY=0;exitDx=0;exitDy=0;entryX=0.5;entryY=1;entryDx=0;entryDy=0;" parent="1" source="Pghm_PCXs0bWWb-cuDt3-49" target="Pghm_PCXs0bWWb-cuDt3-50" edge="1">
          <mxGeometry width="50" height="50" relative="1" as="geometry">
            <mxPoint x="230" y="368" as="sourcePoint" />
            <mxPoint x="150" y="323" as="targetPoint" />
          </mxGeometry>
        </mxCell>
        <mxCell id="Pghm_PCXs0bWWb-cuDt3-53" value="" style="endArrow=none;html=1;rounded=0;exitX=1;exitY=0.5;exitDx=0;exitDy=0;entryX=0;entryY=0.5;entryDx=0;entryDy=0;" parent="1" source="Pghm_PCXs0bWWb-cuDt3-50" target="Pghm_PCXs0bWWb-cuDt3-12" edge="1">
          <mxGeometry width="50" height="50" relative="1" as="geometry">
            <mxPoint x="240" y="200" as="sourcePoint" />
            <mxPoint x="490" y="160" as="targetPoint" />
          </mxGeometry>
        </mxCell>
        <mxCell id="Pghm_PCXs0bWWb-cuDt3-54" value="" style="endArrow=none;html=1;rounded=0;exitX=0;exitY=0.5;exitDx=0;exitDy=0;entryX=1;entryY=0.5;entryDx=0;entryDy=0;" parent="1" source="Pghm_PCXs0bWWb-cuDt3-50" target="Pghm_PCXs0bWWb-cuDt3-11" edge="1">
          <mxGeometry width="50" height="50" relative="1" as="geometry">
            <mxPoint x="170" y="160" as="sourcePoint" />
            <mxPoint x="110" y="115" as="targetPoint" />
          </mxGeometry>
        </mxCell>
        <mxCell id="Pghm_PCXs0bWWb-cuDt3-55" value="" style="endArrow=none;html=1;rounded=0;exitX=0;exitY=0.5;exitDx=0;exitDy=0;entryX=1;entryY=0.5;entryDx=0;entryDy=0;" parent="1" source="su5PDg1l_TLm0L7Ap9I_-8" target="Pghm_PCXs0bWWb-cuDt3-5" edge="1">
          <mxGeometry width="50" height="50" relative="1" as="geometry">
            <mxPoint x="210" y="200" as="sourcePoint" />
            <mxPoint x="160" y="350" as="targetPoint" />
          </mxGeometry>
        </mxCell>
        <mxCell id="Pghm_PCXs0bWWb-cuDt3-58" value="" style="endArrow=none;html=1;rounded=0;exitX=0;exitY=0.5;exitDx=0;exitDy=0;entryX=1;entryY=0.5;entryDx=0;entryDy=0;" parent="1" source="su5PDg1l_TLm0L7Ap9I_-8" target="Pghm_PCXs0bWWb-cuDt3-6" edge="1">
          <mxGeometry width="50" height="50" relative="1" as="geometry">
            <mxPoint x="250" y="388" as="sourcePoint" />
            <mxPoint x="170" y="360" as="targetPoint" />
          </mxGeometry>
        </mxCell>
        <mxCell id="Pghm_PCXs0bWWb-cuDt3-59" value="" style="endArrow=none;html=1;rounded=0;exitX=0.5;exitY=1;exitDx=0;exitDy=0;entryX=1;entryY=0.5;entryDx=0;entryDy=0;" parent="1" source="su5PDg1l_TLm0L7Ap9I_-8" target="Pghm_PCXs0bWWb-cuDt3-7" edge="1">
          <mxGeometry width="50" height="50" relative="1" as="geometry">
            <mxPoint x="260" y="398" as="sourcePoint" />
            <mxPoint x="180" y="370" as="targetPoint" />
          </mxGeometry>
        </mxCell>
        <mxCell id="Pghm_PCXs0bWWb-cuDt3-60" value="" style="endArrow=none;html=1;rounded=0;exitX=0.5;exitY=1;exitDx=0;exitDy=0;entryX=0.5;entryY=0;entryDx=0;entryDy=0;" parent="1" source="su5PDg1l_TLm0L7Ap9I_-8" target="Pghm_PCXs0bWWb-cuDt3-8" edge="1">
          <mxGeometry width="50" height="50" relative="1" as="geometry">
            <mxPoint x="270" y="408" as="sourcePoint" />
            <mxPoint x="190" y="380" as="targetPoint" />
          </mxGeometry>
        </mxCell>
        <mxCell id="Pghm_PCXs0bWWb-cuDt3-61" value="" style="endArrow=none;html=1;rounded=0;exitX=0.5;exitY=1;exitDx=0;exitDy=0;entryX=0.5;entryY=0;entryDx=0;entryDy=0;" parent="1" source="su5PDg1l_TLm0L7Ap9I_-8" target="Pghm_PCXs0bWWb-cuDt3-9" edge="1">
          <mxGeometry width="50" height="50" relative="1" as="geometry">
            <mxPoint x="280" y="418" as="sourcePoint" />
            <mxPoint x="200" y="390" as="targetPoint" />
          </mxGeometry>
        </mxCell>
        <mxCell id="Pghm_PCXs0bWWb-cuDt3-65" value="" style="endArrow=none;html=1;rounded=0;exitX=0.5;exitY=1;exitDx=0;exitDy=0;entryX=1;entryY=0.5;entryDx=0;entryDy=0;fontSize=14;" parent="1" source="Pghm_PCXs0bWWb-cuDt3-3" target="Pghm_PCXs0bWWb-cuDt3-19" edge="1">
          <mxGeometry width="50" height="50" relative="1" as="geometry">
            <mxPoint x="-115" y="945" as="sourcePoint" />
            <mxPoint x="-135" y="920" as="targetPoint" />
          </mxGeometry>
        </mxCell>
        <mxCell id="Pghm_PCXs0bWWb-cuDt3-66" value="" style="endArrow=none;html=1;rounded=0;exitX=0;exitY=0.5;exitDx=0;exitDy=0;entryX=1;entryY=0.5;entryDx=0;entryDy=0;fontSize=14;" parent="1" source="Pghm_PCXs0bWWb-cuDt3-3" target="Pghm_PCXs0bWWb-cuDt3-20" edge="1">
          <mxGeometry width="50" height="50" relative="1" as="geometry">
            <mxPoint x="-105" y="955" as="sourcePoint" />
            <mxPoint x="-125" y="930" as="targetPoint" />
          </mxGeometry>
        </mxCell>
        <mxCell id="Pghm_PCXs0bWWb-cuDt3-67" value="" style="endArrow=none;html=1;rounded=0;exitX=0.5;exitY=0;exitDx=0;exitDy=0;entryX=0.5;entryY=1;entryDx=0;entryDy=0;fontSize=14;" parent="1" source="Pghm_PCXs0bWWb-cuDt3-3" target="Pghm_PCXs0bWWb-cuDt3-18" edge="1">
          <mxGeometry width="50" height="50" relative="1" as="geometry">
            <mxPoint x="125" y="870" as="sourcePoint" />
            <mxPoint x="170" y="820" as="targetPoint" />
          </mxGeometry>
        </mxCell>
        <mxCell id="Pghm_PCXs0bWWb-cuDt3-68" value="" style="endArrow=none;html=1;rounded=0;exitX=0.5;exitY=0;exitDx=0;exitDy=0;entryX=0;entryY=0.5;entryDx=0;entryDy=0;fontSize=14;" parent="1" source="Pghm_PCXs0bWWb-cuDt3-3" target="Pghm_PCXs0bWWb-cuDt3-17" edge="1">
          <mxGeometry width="50" height="50" relative="1" as="geometry">
            <mxPoint x="125" y="870" as="sourcePoint" />
            <mxPoint x="180" y="805" as="targetPoint" />
          </mxGeometry>
        </mxCell>
        <mxCell id="Pghm_PCXs0bWWb-cuDt3-69" value="" style="endArrow=none;html=1;rounded=0;exitX=1;exitY=0.5;exitDx=0;exitDy=0;entryX=0;entryY=0.5;entryDx=0;entryDy=0;" parent="1" source="Pghm_PCXs0bWWb-cuDt3-2" target="Pghm_PCXs0bWWb-cuDt3-37" edge="1">
          <mxGeometry width="50" height="50" relative="1" as="geometry">
            <mxPoint x="862.5" y="498" as="sourcePoint" />
            <mxPoint x="962.5" y="540" as="targetPoint" />
          </mxGeometry>
        </mxCell>
        <mxCell id="Pghm_PCXs0bWWb-cuDt3-70" value="" style="endArrow=none;html=1;rounded=0;exitX=0.5;exitY=1;exitDx=0;exitDy=0;entryX=0.5;entryY=0;entryDx=0;entryDy=0;" parent="1" source="Pghm_PCXs0bWWb-cuDt3-2" target="Pghm_PCXs0bWWb-cuDt3-36" edge="1">
          <mxGeometry width="50" height="50" relative="1" as="geometry">
            <mxPoint x="917.5" y="720" as="sourcePoint" />
            <mxPoint x="1002.5" y="755" as="targetPoint" />
          </mxGeometry>
        </mxCell>
        <mxCell id="Pghm_PCXs0bWWb-cuDt3-71" value="" style="endArrow=none;html=1;rounded=0;exitX=0.5;exitY=1;exitDx=0;exitDy=0;entryX=0.5;entryY=0;entryDx=0;entryDy=0;" parent="1" source="Pghm_PCXs0bWWb-cuDt3-2" target="Pghm_PCXs0bWWb-cuDt3-35" edge="1">
          <mxGeometry width="50" height="50" relative="1" as="geometry">
            <mxPoint x="927.5" y="730" as="sourcePoint" />
            <mxPoint x="1012.5" y="765" as="targetPoint" />
          </mxGeometry>
        </mxCell>
        <mxCell id="Pghm_PCXs0bWWb-cuDt3-72" value="" style="endArrow=none;html=1;rounded=0;exitX=0;exitY=0.5;exitDx=0;exitDy=0;entryX=1;entryY=0.5;entryDx=0;entryDy=0;" parent="1" source="Pghm_PCXs0bWWb-cuDt3-1" target="Pghm_PCXs0bWWb-cuDt3-13" edge="1">
          <mxGeometry width="50" height="50" relative="1" as="geometry">
            <mxPoint x="250" y="388" as="sourcePoint" />
            <mxPoint x="150" y="485" as="targetPoint" />
          </mxGeometry>
        </mxCell>
        <mxCell id="Pghm_PCXs0bWWb-cuDt3-73" value="" style="endArrow=none;html=1;rounded=0;exitX=0;exitY=0.5;exitDx=0;exitDy=0;entryX=0.987;entryY=0.633;entryDx=0;entryDy=0;entryPerimeter=0;" parent="1" source="Pghm_PCXs0bWWb-cuDt3-1" target="Pghm_PCXs0bWWb-cuDt3-14" edge="1">
          <mxGeometry width="50" height="50" relative="1" as="geometry">
            <mxPoint x="250" y="665" as="sourcePoint" />
            <mxPoint x="180" y="620" as="targetPoint" />
          </mxGeometry>
        </mxCell>
        <mxCell id="Pghm_PCXs0bWWb-cuDt3-74" value="" style="endArrow=none;html=1;rounded=0;exitX=0;exitY=0.5;exitDx=0;exitDy=0;entryX=1;entryY=0.5;entryDx=0;entryDy=0;" parent="1" source="Pghm_PCXs0bWWb-cuDt3-1" target="Pghm_PCXs0bWWb-cuDt3-15" edge="1">
          <mxGeometry width="50" height="50" relative="1" as="geometry">
            <mxPoint x="260" y="675" as="sourcePoint" />
            <mxPoint x="190" y="630" as="targetPoint" />
          </mxGeometry>
        </mxCell>
        <mxCell id="Pghm_PCXs0bWWb-cuDt3-75" value="" style="endArrow=none;html=1;rounded=0;exitX=0;exitY=0.5;exitDx=0;exitDy=0;entryX=1;entryY=0.5;entryDx=0;entryDy=0;" parent="1" source="Pghm_PCXs0bWWb-cuDt3-1" target="Pghm_PCXs0bWWb-cuDt3-16" edge="1">
          <mxGeometry width="50" height="50" relative="1" as="geometry">
            <mxPoint x="270" y="685" as="sourcePoint" />
            <mxPoint x="200" y="640" as="targetPoint" />
          </mxGeometry>
        </mxCell>
        <mxCell id="Pghm_PCXs0bWWb-cuDt3-76" value="" style="endArrow=none;html=1;rounded=0;exitX=1;exitY=0.5;exitDx=0;exitDy=0;entryX=0;entryY=0.5;entryDx=0;entryDy=0;" parent="1" source="Pghm_PCXs0bWWb-cuDt3-1" target="su5PDg1l_TLm0L7Ap9I_-22" edge="1">
          <mxGeometry width="50" height="50" relative="1" as="geometry">
            <mxPoint x="340" y="388" as="sourcePoint" />
            <mxPoint x="480" y="320" as="targetPoint" />
          </mxGeometry>
        </mxCell>
        <mxCell id="Pghm_PCXs0bWWb-cuDt3-78" value="" style="endArrow=none;html=1;rounded=0;exitX=0;exitY=0.5;exitDx=0;exitDy=0;entryX=0.75;entryY=0;entryDx=0;entryDy=0;fontSize=14;" parent="1" source="Pghm_PCXs0bWWb-cuDt3-31" target="Pghm_PCXs0bWWb-cuDt3-4" edge="1">
          <mxGeometry width="50" height="50" relative="1" as="geometry">
            <mxPoint x="815" y="925" as="sourcePoint" />
            <mxPoint x="770" y="975" as="targetPoint" />
          </mxGeometry>
        </mxCell>
        <mxCell id="Pghm_PCXs0bWWb-cuDt3-79" value="" style="endArrow=none;html=1;rounded=0;exitX=0;exitY=0.5;exitDx=0;exitDy=0;entryX=1;entryY=0.5;entryDx=0;entryDy=0;fontSize=14;" parent="1" source="Pghm_PCXs0bWWb-cuDt3-30" target="Pghm_PCXs0bWWb-cuDt3-4" edge="1">
          <mxGeometry width="50" height="50" relative="1" as="geometry">
            <mxPoint x="585" y="1090" as="sourcePoint" />
            <mxPoint x="545" y="1140" as="targetPoint" />
          </mxGeometry>
        </mxCell>
        <mxCell id="Pghm_PCXs0bWWb-cuDt3-80" value="" style="endArrow=none;html=1;rounded=0;entryX=0.893;entryY=0.973;entryDx=0;entryDy=0;entryPerimeter=0;fontSize=14;" parent="1" source="Pghm_PCXs0bWWb-cuDt3-33" target="Pghm_PCXs0bWWb-cuDt3-4" edge="1">
          <mxGeometry width="50" height="50" relative="1" as="geometry">
            <mxPoint x="620" y="1140" as="sourcePoint" />
            <mxPoint x="545" y="1140" as="targetPoint" />
          </mxGeometry>
        </mxCell>
        <mxCell id="Pghm_PCXs0bWWb-cuDt3-81" value="" style="endArrow=none;html=1;rounded=0;exitX=0.5;exitY=0;exitDx=0;exitDy=0;entryX=0.564;entryY=0.971;entryDx=0;entryDy=0;entryPerimeter=0;fontSize=14;" parent="1" source="Pghm_PCXs0bWWb-cuDt3-29" target="Pghm_PCXs0bWWb-cuDt3-4" edge="1">
          <mxGeometry width="50" height="50" relative="1" as="geometry">
            <mxPoint x="630" y="1150" as="sourcePoint" />
            <mxPoint x="555" y="1150" as="targetPoint" />
          </mxGeometry>
        </mxCell>
        <mxCell id="Pghm_PCXs0bWWb-cuDt3-82" value="" style="endArrow=none;html=1;rounded=0;entryX=0.5;entryY=0;entryDx=0;entryDy=0;exitX=0.138;exitY=0.987;exitDx=0;exitDy=0;exitPerimeter=0;fontSize=14;" parent="1" source="Pghm_PCXs0bWWb-cuDt3-4" target="Pghm_PCXs0bWWb-cuDt3-28" edge="1">
          <mxGeometry width="50" height="50" relative="1" as="geometry">
            <mxPoint x="487" y="1146" as="sourcePoint" />
            <mxPoint x="506" y="1154" as="targetPoint" />
          </mxGeometry>
        </mxCell>
        <mxCell id="Pghm_PCXs0bWWb-cuDt3-83" value="" style="endArrow=none;html=1;rounded=0;exitX=0.5;exitY=0;exitDx=0;exitDy=0;entryX=0.5;entryY=1;entryDx=0;entryDy=0;fontSize=14;" parent="1" source="Pghm_PCXs0bWWb-cuDt3-4" target="Pghm_PCXs0bWWb-cuDt3-26" edge="1">
          <mxGeometry width="50" height="50" relative="1" as="geometry">
            <mxPoint x="560" y="1205" as="sourcePoint" />
            <mxPoint x="516" y="1164" as="targetPoint" />
          </mxGeometry>
        </mxCell>
        <mxCell id="Pghm_PCXs0bWWb-cuDt3-84" value="" style="endArrow=none;html=1;rounded=0;exitX=0;exitY=0.5;exitDx=0;exitDy=0;entryX=1;entryY=0.5;entryDx=0;entryDy=0;fontSize=14;" parent="1" source="Pghm_PCXs0bWWb-cuDt3-4" target="Pghm_PCXs0bWWb-cuDt3-27" edge="1">
          <mxGeometry width="50" height="50" relative="1" as="geometry">
            <mxPoint x="570" y="1215" as="sourcePoint" />
            <mxPoint x="526" y="1174" as="targetPoint" />
          </mxGeometry>
        </mxCell>
        <mxCell id="Pghm_PCXs0bWWb-cuDt3-86" value="（0,N）" style="text;strokeColor=none;fillColor=none;spacingLeft=4;spacingRight=4;overflow=hidden;rotatable=0;points=[[0,0.5],[1,0.5]];portConstraint=eastwest;fontSize=12;whiteSpace=wrap;html=1;" parent="1" vertex="1">
          <mxGeometry x="405" y="340" width="50" height="30" as="geometry" />
        </mxCell>
        <mxCell id="Pghm_PCXs0bWWb-cuDt3-87" value="（5,N）" style="text;strokeColor=none;fillColor=none;spacingLeft=4;spacingRight=4;overflow=hidden;rotatable=0;points=[[0,0.5],[1,0.5]];portConstraint=eastwest;fontSize=12;whiteSpace=wrap;html=1;" parent="1" vertex="1">
          <mxGeometry x="510" y="265" width="50" height="30" as="geometry" />
        </mxCell>
        <mxCell id="Pghm_PCXs0bWWb-cuDt3-88" value="（1,N）" style="text;strokeColor=none;fillColor=none;spacingLeft=4;spacingRight=4;overflow=hidden;rotatable=0;points=[[0,0.5],[1,0.5]];portConstraint=eastwest;fontSize=12;whiteSpace=wrap;html=1;" parent="1" vertex="1">
          <mxGeometry x="405" y="500" width="50" height="30" as="geometry" />
        </mxCell>
        <mxCell id="Pghm_PCXs0bWWb-cuDt3-89" value="（1,1）" style="text;strokeColor=none;fillColor=none;spacingLeft=4;spacingRight=4;overflow=hidden;rotatable=0;points=[[0,0.5],[1,0.5]];portConstraint=eastwest;fontSize=12;whiteSpace=wrap;html=1;" parent="1" vertex="1">
          <mxGeometry x="530" y="380" width="50" height="30" as="geometry" />
        </mxCell>
        <mxCell id="Pghm_PCXs0bWWb-cuDt3-90" value="&lt;font style=&quot;font-size: 14px;&quot;&gt;class_name&lt;/font&gt;" style="ellipse;whiteSpace=wrap;html=1;container=0;" parent="1" vertex="1">
          <mxGeometry x="695" y="190" width="80" height="30" as="geometry" />
        </mxCell>
        <mxCell id="Pghm_PCXs0bWWb-cuDt3-91" value="" style="endArrow=none;html=1;rounded=0;exitX=1;exitY=0.5;exitDx=0;exitDy=0;entryX=0;entryY=0.5;entryDx=0;entryDy=0;" parent="1" source="su5PDg1l_TLm0L7Ap9I_-1" target="Pghm_PCXs0bWWb-cuDt3-90" edge="1">
          <mxGeometry width="50" height="50" relative="1" as="geometry">
            <mxPoint x="830" y="328" as="sourcePoint" />
            <mxPoint x="885" y="230" as="targetPoint" />
          </mxGeometry>
        </mxCell>
        <mxCell id="Pghm_PCXs0bWWb-cuDt3-93" value="（1,N）" style="text;strokeColor=none;fillColor=none;spacingLeft=4;spacingRight=4;overflow=hidden;rotatable=0;points=[[0,0.5],[1,0.5]];portConstraint=eastwest;fontSize=12;whiteSpace=wrap;html=1;" parent="1" vertex="1">
          <mxGeometry x="665" y="450" width="50" height="30" as="geometry" />
        </mxCell>
        <mxCell id="Pghm_PCXs0bWWb-cuDt3-94" value="（0,N）" style="text;strokeColor=none;fillColor=none;spacingLeft=4;spacingRight=4;overflow=hidden;rotatable=0;points=[[0,0.5],[1,0.5]];portConstraint=eastwest;fontSize=12;whiteSpace=wrap;html=1;" parent="1" vertex="1">
          <mxGeometry x="235" y="295" width="50" height="30" as="geometry" />
        </mxCell>
        <mxCell id="Pghm_PCXs0bWWb-cuDt3-95" value="（0, 2）" style="text;strokeColor=none;fillColor=none;spacingLeft=4;spacingRight=4;overflow=hidden;rotatable=0;points=[[0,0.5],[1,0.5]];portConstraint=eastwest;fontSize=12;whiteSpace=wrap;html=1;" parent="1" vertex="1">
          <mxGeometry x="235" y="200" width="85" height="30" as="geometry" />
        </mxCell>
        <mxCell id="Pghm_PCXs0bWWb-cuDt3-109" value="（1,1）" style="text;strokeColor=none;fillColor=none;spacingLeft=4;spacingRight=4;overflow=hidden;rotatable=0;points=[[0,0.5],[1,0.5]];portConstraint=eastwest;fontSize=12;whiteSpace=wrap;html=1;" parent="1" vertex="1">
          <mxGeometry x="650" y="320" width="50" height="30" as="geometry" />
        </mxCell>
        <mxCell id="gSTcRpvYbXPPoBZ5fAX7-1" value="status" style="ellipse;whiteSpace=wrap;html=1;fontSize=14;" parent="1" vertex="1">
          <mxGeometry x="105" y="900" width="80" height="30" as="geometry" />
        </mxCell>
        <mxCell id="gSTcRpvYbXPPoBZ5fAX7-2" value="" style="endArrow=none;html=1;rounded=0;exitX=0.5;exitY=0;exitDx=0;exitDy=0;entryX=0.5;entryY=1;entryDx=0;entryDy=0;fontSize=14;" parent="1" source="Pghm_PCXs0bWWb-cuDt3-3" target="gSTcRpvYbXPPoBZ5fAX7-1" edge="1">
          <mxGeometry width="50" height="50" relative="1" as="geometry">
            <mxPoint x="243" y="960" as="sourcePoint" />
            <mxPoint x="315" y="915" as="targetPoint" />
          </mxGeometry>
        </mxCell>
        <mxCell id="gSTcRpvYbXPPoBZ5fAX7-3" value="&lt;font style=&quot;font-size: 14px;&quot;&gt;status&lt;/font&gt;" style="ellipse;whiteSpace=wrap;html=1;" parent="1" vertex="1">
          <mxGeometry x="385" y="393" width="100" height="30" as="geometry" />
        </mxCell>
        <mxCell id="gSTcRpvYbXPPoBZ5fAX7-4" value="" style="endArrow=none;html=1;rounded=0;exitX=0.5;exitY=1;exitDx=0;exitDy=0;entryX=0;entryY=0.5;entryDx=0;entryDy=0;" parent="1" source="su5PDg1l_TLm0L7Ap9I_-8" target="gSTcRpvYbXPPoBZ5fAX7-3" edge="1">
          <mxGeometry width="50" height="50" relative="1" as="geometry">
            <mxPoint x="295" y="403" as="sourcePoint" />
            <mxPoint x="375" y="449" as="targetPoint" />
          </mxGeometry>
        </mxCell>
        <mxCell id="gSTcRpvYbXPPoBZ5fAX7-20" value="&lt;font style=&quot;font-size: 15px;&quot;&gt;WORKERS&lt;/font&gt;" style="rounded=0;whiteSpace=wrap;html=1;fontSize=14;" parent="1" vertex="1">
          <mxGeometry x="210" y="1110" width="90" height="30" as="geometry" />
        </mxCell>
        <mxCell id="gSTcRpvYbXPPoBZ5fAX7-21" value="&lt;u&gt;worker_id&lt;/u&gt;" style="ellipse;whiteSpace=wrap;html=1;fontSize=14;" parent="1" vertex="1">
          <mxGeometry x="75" y="1095" width="80" height="30" as="geometry" />
        </mxCell>
        <mxCell id="gSTcRpvYbXPPoBZ5fAX7-22" value="worker_name" style="ellipse;whiteSpace=wrap;html=1;fontSize=14;" parent="1" vertex="1">
          <mxGeometry x="75" y="1155" width="100" height="30" as="geometry" />
        </mxCell>
        <mxCell id="gSTcRpvYbXPPoBZ5fAX7-23" value="status" style="ellipse;whiteSpace=wrap;html=1;fontSize=14;" parent="1" vertex="1">
          <mxGeometry x="187.5" y="1185" width="100" height="30" as="geometry" />
        </mxCell>
        <mxCell id="gSTcRpvYbXPPoBZ5fAX7-24" value="password" style="ellipse;whiteSpace=wrap;html=1;fontSize=14;" parent="1" vertex="1">
          <mxGeometry x="205" y="1055" width="100" height="30" as="geometry" />
        </mxCell>
        <mxCell id="gSTcRpvYbXPPoBZ5fAX7-31" value="" style="endArrow=none;html=1;rounded=0;exitX=0.5;exitY=1;exitDx=0;exitDy=0;entryX=0.5;entryY=0;entryDx=0;entryDy=0;fontSize=14;" parent="1" source="gSTcRpvYbXPPoBZ5fAX7-24" target="gSTcRpvYbXPPoBZ5fAX7-20" edge="1">
          <mxGeometry width="50" height="50" relative="1" as="geometry">
            <mxPoint x="370" y="1095" as="sourcePoint" />
            <mxPoint x="295" y="1095" as="targetPoint" />
          </mxGeometry>
        </mxCell>
        <mxCell id="gSTcRpvYbXPPoBZ5fAX7-32" value="" style="endArrow=none;html=1;rounded=0;exitX=0.5;exitY=1;exitDx=0;exitDy=0;entryX=0.5;entryY=0;entryDx=0;entryDy=0;fontSize=14;" parent="1" source="gSTcRpvYbXPPoBZ5fAX7-20" target="gSTcRpvYbXPPoBZ5fAX7-23" edge="1">
          <mxGeometry width="50" height="50" relative="1" as="geometry">
            <mxPoint x="290" y="1140" as="sourcePoint" />
            <mxPoint x="246" y="1099" as="targetPoint" />
          </mxGeometry>
        </mxCell>
        <mxCell id="gSTcRpvYbXPPoBZ5fAX7-33" value="" style="endArrow=none;html=1;rounded=0;exitX=0;exitY=0.5;exitDx=0;exitDy=0;entryX=1;entryY=0.5;entryDx=0;entryDy=0;fontSize=14;" parent="1" source="gSTcRpvYbXPPoBZ5fAX7-20" target="gSTcRpvYbXPPoBZ5fAX7-21" edge="1">
          <mxGeometry width="50" height="50" relative="1" as="geometry">
            <mxPoint x="300" y="1150" as="sourcePoint" />
            <mxPoint x="256" y="1109" as="targetPoint" />
          </mxGeometry>
        </mxCell>
        <mxCell id="gSTcRpvYbXPPoBZ5fAX7-34" value="" style="endArrow=none;html=1;rounded=0;exitX=0.5;exitY=1;exitDx=0;exitDy=0;fontSize=14;" parent="1" source="gSTcRpvYbXPPoBZ5fAX7-20" target="gSTcRpvYbXPPoBZ5fAX7-22" edge="1">
          <mxGeometry width="50" height="50" relative="1" as="geometry">
            <mxPoint x="310" y="1160" as="sourcePoint" />
            <mxPoint x="266" y="1119" as="targetPoint" />
          </mxGeometry>
        </mxCell>
        <mxCell id="gSTcRpvYbXPPoBZ5fAX7-42" value="&lt;span&gt;PARENT&lt;/span&gt;" style="text;strokeColor=none;fillColor=none;html=1;fontSize=15;fontStyle=1;verticalAlign=middle;align=left;" parent="1" vertex="1">
          <mxGeometry x="170" y="2540" width="100" height="40" as="geometry" />
        </mxCell>
        <mxCell id="gSTcRpvYbXPPoBZ5fAX7-43" value="" style="shape=table;startSize=0;container=1;collapsible=0;childLayout=tableLayout;fontSize=15;" parent="1" vertex="1">
          <mxGeometry x="170" y="2580" width="270" height="30" as="geometry" />
        </mxCell>
        <mxCell id="gSTcRpvYbXPPoBZ5fAX7-44" value="" style="shape=tableRow;horizontal=0;startSize=0;swimlaneHead=0;swimlaneBody=0;strokeColor=inherit;top=0;left=0;bottom=0;right=0;collapsible=0;dropTarget=0;fillColor=none;points=[[0,0.5],[1,0.5]];portConstraint=eastwest;fontSize=15;" parent="gSTcRpvYbXPPoBZ5fAX7-43" vertex="1">
          <mxGeometry width="270" height="30" as="geometry" />
        </mxCell>
        <mxCell id="gSTcRpvYbXPPoBZ5fAX7-45" value="&lt;font&gt;parent_name&lt;/font&gt;" style="shape=partialRectangle;html=1;whiteSpace=wrap;connectable=0;strokeColor=inherit;overflow=hidden;fillColor=none;top=0;left=0;bottom=0;right=0;pointerEvents=1;fontSize=15;" parent="gSTcRpvYbXPPoBZ5fAX7-44" vertex="1">
          <mxGeometry width="90" height="30" as="geometry">
            <mxRectangle width="90" height="30" as="alternateBounds" />
          </mxGeometry>
        </mxCell>
        <mxCell id="gSTcRpvYbXPPoBZ5fAX7-46" value="tel" style="shape=partialRectangle;html=1;whiteSpace=wrap;connectable=0;strokeColor=inherit;overflow=hidden;fillColor=none;top=0;left=0;bottom=0;right=0;pointerEvents=1;fontSize=15;" parent="gSTcRpvYbXPPoBZ5fAX7-44" vertex="1">
          <mxGeometry x="90" width="90" height="30" as="geometry">
            <mxRectangle width="90" height="30" as="alternateBounds" />
          </mxGeometry>
        </mxCell>
        <mxCell id="gSTcRpvYbXPPoBZ5fAX7-47" value="student_id" style="shape=partialRectangle;html=1;whiteSpace=wrap;connectable=0;strokeColor=inherit;overflow=hidden;fillColor=none;top=0;left=0;bottom=0;right=0;pointerEvents=1;fontSize=15;" parent="gSTcRpvYbXPPoBZ5fAX7-44" vertex="1">
          <mxGeometry x="180" width="90" height="30" as="geometry">
            <mxRectangle width="90" height="30" as="alternateBounds" />
          </mxGeometry>
        </mxCell>
        <mxCell id="gSTcRpvYbXPPoBZ5fAX7-49" value="&lt;span&gt;MENTOR&lt;/span&gt;" style="text;strokeColor=none;fillColor=none;html=1;fontSize=15;fontStyle=1;verticalAlign=middle;align=left;" parent="1" vertex="1">
          <mxGeometry x="170" y="2630" width="100" height="40" as="geometry" />
        </mxCell>
        <mxCell id="gSTcRpvYbXPPoBZ5fAX7-50" value="" style="shape=table;startSize=0;container=1;collapsible=0;childLayout=tableLayout;fontSize=15;" parent="1" vertex="1">
          <mxGeometry x="170" y="2670" width="510" height="30" as="geometry" />
        </mxCell>
        <mxCell id="gSTcRpvYbXPPoBZ5fAX7-51" value="" style="shape=tableRow;horizontal=0;startSize=0;swimlaneHead=0;swimlaneBody=0;strokeColor=inherit;top=0;left=0;bottom=0;right=0;collapsible=0;dropTarget=0;fillColor=none;points=[[0,0.5],[1,0.5]];portConstraint=eastwest;fontSize=15;" parent="gSTcRpvYbXPPoBZ5fAX7-50" vertex="1">
          <mxGeometry width="510" height="30" as="geometry" />
        </mxCell>
        <mxCell id="gSTcRpvYbXPPoBZ5fAX7-52" value="&lt;font&gt;&lt;u&gt;mentor_id&lt;/u&gt;&lt;/font&gt;" style="shape=partialRectangle;html=1;whiteSpace=wrap;connectable=0;strokeColor=inherit;overflow=hidden;fillColor=none;top=0;left=0;bottom=0;right=0;pointerEvents=1;fontSize=15;" parent="gSTcRpvYbXPPoBZ5fAX7-51" vertex="1">
          <mxGeometry width="102" height="30" as="geometry">
            <mxRectangle width="102" height="30" as="alternateBounds" />
          </mxGeometry>
        </mxCell>
        <mxCell id="gSTcRpvYbXPPoBZ5fAX7-53" value="memtor_name" style="shape=partialRectangle;html=1;whiteSpace=wrap;connectable=0;strokeColor=inherit;overflow=hidden;fillColor=none;top=0;left=0;bottom=0;right=0;pointerEvents=1;fontSize=15;" parent="gSTcRpvYbXPPoBZ5fAX7-51" vertex="1">
          <mxGeometry x="102" width="102" height="30" as="geometry">
            <mxRectangle width="102" height="30" as="alternateBounds" />
          </mxGeometry>
        </mxCell>
        <mxCell id="gSTcRpvYbXPPoBZ5fAX7-54" value="tel" style="shape=partialRectangle;html=1;whiteSpace=wrap;connectable=0;strokeColor=inherit;overflow=hidden;fillColor=none;top=0;left=0;bottom=0;right=0;pointerEvents=1;fontSize=15;" parent="gSTcRpvYbXPPoBZ5fAX7-51" vertex="1">
          <mxGeometry x="204" width="102" height="30" as="geometry">
            <mxRectangle width="102" height="30" as="alternateBounds" />
          </mxGeometry>
        </mxCell>
        <mxCell id="gSTcRpvYbXPPoBZ5fAX7-55" value="address" style="shape=partialRectangle;html=1;whiteSpace=wrap;connectable=0;strokeColor=inherit;overflow=hidden;fillColor=none;top=0;left=0;bottom=0;right=0;pointerEvents=1;fontSize=15;" parent="gSTcRpvYbXPPoBZ5fAX7-51" vertex="1">
          <mxGeometry x="306" width="102" height="30" as="geometry">
            <mxRectangle width="102" height="30" as="alternateBounds" />
          </mxGeometry>
        </mxCell>
        <mxCell id="gSTcRpvYbXPPoBZ5fAX7-56" value="status" style="shape=partialRectangle;html=1;whiteSpace=wrap;connectable=0;strokeColor=inherit;overflow=hidden;fillColor=none;top=0;left=0;bottom=0;right=0;pointerEvents=1;fontSize=15;" parent="gSTcRpvYbXPPoBZ5fAX7-51" vertex="1">
          <mxGeometry x="408" width="102" height="30" as="geometry">
            <mxRectangle width="102" height="30" as="alternateBounds" />
          </mxGeometry>
        </mxCell>
        <mxCell id="gSTcRpvYbXPPoBZ5fAX7-57" value="&lt;span&gt;AUDIT&lt;/span&gt;" style="text;strokeColor=none;fillColor=none;html=1;fontSize=15;fontStyle=1;verticalAlign=middle;align=left;" parent="1" vertex="1">
          <mxGeometry x="170" y="2720" width="100" height="40" as="geometry" />
        </mxCell>
        <mxCell id="gSTcRpvYbXPPoBZ5fAX7-63" value="" style="shape=table;startSize=0;container=1;collapsible=0;childLayout=tableLayout;fontSize=15;" parent="1" vertex="1">
          <mxGeometry x="170" y="2760" width="630" height="30" as="geometry" />
        </mxCell>
        <mxCell id="gSTcRpvYbXPPoBZ5fAX7-64" value="" style="shape=tableRow;horizontal=0;startSize=0;swimlaneHead=0;swimlaneBody=0;strokeColor=inherit;top=0;left=0;bottom=0;right=0;collapsible=0;dropTarget=0;fillColor=none;points=[[0,0.5],[1,0.5]];portConstraint=eastwest;fontSize=15;" parent="gSTcRpvYbXPPoBZ5fAX7-63" vertex="1">
          <mxGeometry width="630" height="30" as="geometry" />
        </mxCell>
        <mxCell id="gSTcRpvYbXPPoBZ5fAX7-65" value="&lt;font&gt;&lt;u&gt;audit_id&lt;/u&gt;&lt;/font&gt;" style="shape=partialRectangle;html=1;whiteSpace=wrap;connectable=0;strokeColor=inherit;overflow=hidden;fillColor=none;top=0;left=0;bottom=0;right=0;pointerEvents=1;fontSize=15;" parent="gSTcRpvYbXPPoBZ5fAX7-64" vertex="1">
          <mxGeometry width="90" height="30" as="geometry">
            <mxRectangle width="90" height="30" as="alternateBounds" />
          </mxGeometry>
        </mxCell>
        <mxCell id="gSTcRpvYbXPPoBZ5fAX7-66" value="&lt;span&gt;audit_name&lt;/span&gt;" style="shape=partialRectangle;html=1;whiteSpace=wrap;connectable=0;strokeColor=inherit;overflow=hidden;fillColor=none;top=0;left=0;bottom=0;right=0;pointerEvents=1;fontSize=15;" parent="gSTcRpvYbXPPoBZ5fAX7-64" vertex="1">
          <mxGeometry x="90" width="90" height="30" as="geometry">
            <mxRectangle width="90" height="30" as="alternateBounds" />
          </mxGeometry>
        </mxCell>
        <mxCell id="gSTcRpvYbXPPoBZ5fAX7-67" value="&lt;span&gt;school&lt;/span&gt;" style="shape=partialRectangle;html=1;whiteSpace=wrap;connectable=0;strokeColor=inherit;overflow=hidden;fillColor=none;top=0;left=0;bottom=0;right=0;pointerEvents=1;fontSize=15;" parent="gSTcRpvYbXPPoBZ5fAX7-64" vertex="1">
          <mxGeometry x="180" width="90" height="30" as="geometry">
            <mxRectangle width="90" height="30" as="alternateBounds" />
          </mxGeometry>
        </mxCell>
        <mxCell id="gSTcRpvYbXPPoBZ5fAX7-68" value="&lt;span&gt;grade&lt;/span&gt;" style="shape=partialRectangle;html=1;whiteSpace=wrap;connectable=0;strokeColor=inherit;overflow=hidden;fillColor=none;top=0;left=0;bottom=0;right=0;pointerEvents=1;fontSize=15;" parent="gSTcRpvYbXPPoBZ5fAX7-64" vertex="1">
          <mxGeometry x="270" width="90" height="30" as="geometry">
            <mxRectangle width="90" height="30" as="alternateBounds" />
          </mxGeometry>
        </mxCell>
        <mxCell id="gSTcRpvYbXPPoBZ5fAX7-69" value="&lt;span&gt;tel&lt;/span&gt;" style="shape=partialRectangle;html=1;whiteSpace=wrap;connectable=0;strokeColor=inherit;overflow=hidden;fillColor=none;top=0;left=0;bottom=0;right=0;pointerEvents=1;fontSize=15;" parent="gSTcRpvYbXPPoBZ5fAX7-64" vertex="1">
          <mxGeometry x="360" width="90" height="30" as="geometry">
            <mxRectangle width="90" height="30" as="alternateBounds" />
          </mxGeometry>
        </mxCell>
        <mxCell id="gSTcRpvYbXPPoBZ5fAX7-70" value="&lt;span&gt;address&lt;/span&gt;" style="shape=partialRectangle;html=1;whiteSpace=wrap;connectable=0;strokeColor=inherit;overflow=hidden;fillColor=none;top=0;left=0;bottom=0;right=0;pointerEvents=1;fontSize=15;" parent="gSTcRpvYbXPPoBZ5fAX7-64" vertex="1">
          <mxGeometry x="450" width="90" height="30" as="geometry">
            <mxRectangle width="90" height="30" as="alternateBounds" />
          </mxGeometry>
        </mxCell>
        <mxCell id="gSTcRpvYbXPPoBZ5fAX7-71" value="&lt;span&gt;status&lt;/span&gt;" style="shape=partialRectangle;html=1;whiteSpace=wrap;connectable=0;strokeColor=inherit;overflow=hidden;fillColor=none;top=0;left=0;bottom=0;right=0;pointerEvents=1;fontSize=15;" parent="gSTcRpvYbXPPoBZ5fAX7-64" vertex="1">
          <mxGeometry x="540" width="90" height="30" as="geometry">
            <mxRectangle width="90" height="30" as="alternateBounds" />
          </mxGeometry>
        </mxCell>
        <mxCell id="gSTcRpvYbXPPoBZ5fAX7-72" value="&lt;span&gt;MENTOR_SHIFT&lt;/span&gt;" style="text;strokeColor=none;fillColor=none;html=1;fontSize=15;fontStyle=1;verticalAlign=middle;align=left;" parent="1" vertex="1">
          <mxGeometry x="170" y="2810" width="100" height="40" as="geometry" />
        </mxCell>
        <mxCell id="gSTcRpvYbXPPoBZ5fAX7-73" value="" style="shape=table;startSize=0;container=1;collapsible=0;childLayout=tableLayout;fontSize=15;" parent="1" vertex="1">
          <mxGeometry x="170" y="2850" width="180" height="29.999999999999996" as="geometry" />
        </mxCell>
        <mxCell id="gSTcRpvYbXPPoBZ5fAX7-74" value="" style="shape=tableRow;horizontal=0;startSize=0;swimlaneHead=0;swimlaneBody=0;strokeColor=inherit;top=0;left=0;bottom=0;right=0;collapsible=0;dropTarget=0;fillColor=none;points=[[0,0.5],[1,0.5]];portConstraint=eastwest;fontSize=15;" parent="gSTcRpvYbXPPoBZ5fAX7-73" vertex="1">
          <mxGeometry width="180" height="30" as="geometry" />
        </mxCell>
        <mxCell id="gSTcRpvYbXPPoBZ5fAX7-75" value="&lt;font&gt;mentor_id&lt;/font&gt;" style="shape=partialRectangle;html=1;whiteSpace=wrap;connectable=0;strokeColor=inherit;overflow=hidden;fillColor=none;top=0;left=0;bottom=0;right=0;pointerEvents=1;fontSize=15;" parent="gSTcRpvYbXPPoBZ5fAX7-74" vertex="1">
          <mxGeometry width="90" height="30" as="geometry">
            <mxRectangle width="90" height="30" as="alternateBounds" />
          </mxGeometry>
        </mxCell>
        <mxCell id="gSTcRpvYbXPPoBZ5fAX7-76" value="shift" style="shape=partialRectangle;html=1;whiteSpace=wrap;connectable=0;strokeColor=inherit;overflow=hidden;fillColor=none;top=0;left=0;bottom=0;right=0;pointerEvents=1;fontSize=15;" parent="gSTcRpvYbXPPoBZ5fAX7-74" vertex="1">
          <mxGeometry x="90" width="90" height="30" as="geometry">
            <mxRectangle width="90" height="30" as="alternateBounds" />
          </mxGeometry>
        </mxCell>
        <mxCell id="gSTcRpvYbXPPoBZ5fAX7-88" value="&lt;span&gt;TEACH&lt;/span&gt;" style="text;strokeColor=none;fillColor=none;html=1;fontSize=15;fontStyle=1;verticalAlign=middle;align=left;" parent="1" vertex="1">
          <mxGeometry x="170" y="2900" width="100" height="40" as="geometry" />
        </mxCell>
        <mxCell id="gSTcRpvYbXPPoBZ5fAX7-89" value="" style="shape=table;startSize=0;container=1;collapsible=0;childLayout=tableLayout;fontSize=15;" parent="1" vertex="1">
          <mxGeometry x="170" y="2940" width="180" height="30" as="geometry" />
        </mxCell>
        <mxCell id="gSTcRpvYbXPPoBZ5fAX7-90" value="" style="shape=tableRow;horizontal=0;startSize=0;swimlaneHead=0;swimlaneBody=0;strokeColor=inherit;top=0;left=0;bottom=0;right=0;collapsible=0;dropTarget=0;fillColor=none;points=[[0,0.5],[1,0.5]];portConstraint=eastwest;fontSize=15;" parent="gSTcRpvYbXPPoBZ5fAX7-89" vertex="1">
          <mxGeometry width="180" height="30" as="geometry" />
        </mxCell>
        <mxCell id="gSTcRpvYbXPPoBZ5fAX7-91" value="&lt;font&gt;teacher_id&lt;/font&gt;" style="shape=partialRectangle;html=1;whiteSpace=wrap;connectable=0;strokeColor=inherit;overflow=hidden;fillColor=none;top=0;left=0;bottom=0;right=0;pointerEvents=1;fontSize=15;" parent="gSTcRpvYbXPPoBZ5fAX7-90" vertex="1">
          <mxGeometry width="90" height="30" as="geometry">
            <mxRectangle width="90" height="30" as="alternateBounds" />
          </mxGeometry>
        </mxCell>
        <mxCell id="gSTcRpvYbXPPoBZ5fAX7-92" value="class_id" style="shape=partialRectangle;html=1;whiteSpace=wrap;connectable=0;strokeColor=inherit;overflow=hidden;fillColor=none;top=0;left=0;bottom=0;right=0;pointerEvents=1;fontSize=15;" parent="gSTcRpvYbXPPoBZ5fAX7-90" vertex="1">
          <mxGeometry x="90" width="90" height="30" as="geometry">
            <mxRectangle width="90" height="30" as="alternateBounds" />
          </mxGeometry>
        </mxCell>
        <mxCell id="gSTcRpvYbXPPoBZ5fAX7-101" value="&lt;span&gt;TAKE&lt;/span&gt;" style="text;strokeColor=none;fillColor=none;html=1;fontSize=15;fontStyle=1;verticalAlign=middle;align=left;" parent="1" vertex="1">
          <mxGeometry x="170" y="3000" width="100" height="40" as="geometry" />
        </mxCell>
        <mxCell id="gSTcRpvYbXPPoBZ5fAX7-102" value="" style="shape=table;startSize=0;container=1;collapsible=0;childLayout=tableLayout;fontSize=15;" parent="1" vertex="1">
          <mxGeometry x="170" y="3040" width="180" height="30" as="geometry" />
        </mxCell>
        <mxCell id="gSTcRpvYbXPPoBZ5fAX7-103" value="" style="shape=tableRow;horizontal=0;startSize=0;swimlaneHead=0;swimlaneBody=0;strokeColor=inherit;top=0;left=0;bottom=0;right=0;collapsible=0;dropTarget=0;fillColor=none;points=[[0,0.5],[1,0.5]];portConstraint=eastwest;fontSize=15;" parent="gSTcRpvYbXPPoBZ5fAX7-102" vertex="1">
          <mxGeometry width="180" height="30" as="geometry" />
        </mxCell>
        <mxCell id="gSTcRpvYbXPPoBZ5fAX7-104" value="&lt;font&gt;student_id&lt;/font&gt;" style="shape=partialRectangle;html=1;whiteSpace=wrap;connectable=0;strokeColor=inherit;overflow=hidden;fillColor=none;top=0;left=0;bottom=0;right=0;pointerEvents=1;fontSize=15;" parent="gSTcRpvYbXPPoBZ5fAX7-103" vertex="1">
          <mxGeometry width="90" height="30" as="geometry">
            <mxRectangle width="90" height="30" as="alternateBounds" />
          </mxGeometry>
        </mxCell>
        <mxCell id="gSTcRpvYbXPPoBZ5fAX7-105" value="class_id" style="shape=partialRectangle;html=1;whiteSpace=wrap;connectable=0;strokeColor=inherit;overflow=hidden;fillColor=none;top=0;left=0;bottom=0;right=0;pointerEvents=1;fontSize=15;" parent="gSTcRpvYbXPPoBZ5fAX7-103" vertex="1">
          <mxGeometry x="90" width="90" height="30" as="geometry">
            <mxRectangle width="90" height="30" as="alternateBounds" />
          </mxGeometry>
        </mxCell>
        <mxCell id="gSTcRpvYbXPPoBZ5fAX7-106" value="&lt;span&gt;WORKERS&lt;/span&gt;" style="text;strokeColor=none;fillColor=none;html=1;fontSize=15;fontStyle=1;verticalAlign=middle;align=left;" parent="1" vertex="1">
          <mxGeometry x="170" y="3090" width="100" height="40" as="geometry" />
        </mxCell>
        <mxCell id="gSTcRpvYbXPPoBZ5fAX7-107" value="" style="shape=table;startSize=0;container=1;collapsible=0;childLayout=tableLayout;fontSize=15;" parent="1" vertex="1">
          <mxGeometry x="170" y="3130" width="420" height="30" as="geometry" />
        </mxCell>
        <mxCell id="gSTcRpvYbXPPoBZ5fAX7-108" value="" style="shape=tableRow;horizontal=0;startSize=0;swimlaneHead=0;swimlaneBody=0;strokeColor=inherit;top=0;left=0;bottom=0;right=0;collapsible=0;dropTarget=0;fillColor=none;points=[[0,0.5],[1,0.5]];portConstraint=eastwest;fontSize=15;" parent="gSTcRpvYbXPPoBZ5fAX7-107" vertex="1">
          <mxGeometry width="420" height="30" as="geometry" />
        </mxCell>
        <mxCell id="gSTcRpvYbXPPoBZ5fAX7-109" value="&lt;font&gt;worker_id&lt;/font&gt;" style="shape=partialRectangle;html=1;whiteSpace=wrap;connectable=0;strokeColor=inherit;overflow=hidden;fillColor=none;top=0;left=0;bottom=0;right=0;pointerEvents=1;fontSize=15;" parent="gSTcRpvYbXPPoBZ5fAX7-108" vertex="1">
          <mxGeometry width="105" height="30" as="geometry">
            <mxRectangle width="105" height="30" as="alternateBounds" />
          </mxGeometry>
        </mxCell>
        <mxCell id="gSTcRpvYbXPPoBZ5fAX7-110" value="worker_name" style="shape=partialRectangle;html=1;whiteSpace=wrap;connectable=0;strokeColor=inherit;overflow=hidden;fillColor=none;top=0;left=0;bottom=0;right=0;pointerEvents=1;fontSize=15;" parent="gSTcRpvYbXPPoBZ5fAX7-108" vertex="1">
          <mxGeometry x="105" width="105" height="30" as="geometry">
            <mxRectangle width="105" height="30" as="alternateBounds" />
          </mxGeometry>
        </mxCell>
        <mxCell id="gSTcRpvYbXPPoBZ5fAX7-111" value="status" style="shape=partialRectangle;html=1;whiteSpace=wrap;connectable=0;strokeColor=inherit;overflow=hidden;fillColor=none;top=0;left=0;bottom=0;right=0;pointerEvents=1;fontSize=15;" parent="gSTcRpvYbXPPoBZ5fAX7-108" vertex="1">
          <mxGeometry x="210" width="105" height="30" as="geometry">
            <mxRectangle width="105" height="30" as="alternateBounds" />
          </mxGeometry>
        </mxCell>
        <mxCell id="gSTcRpvYbXPPoBZ5fAX7-112" value="password" style="shape=partialRectangle;html=1;whiteSpace=wrap;connectable=0;strokeColor=inherit;overflow=hidden;fillColor=none;top=0;left=0;bottom=0;right=0;pointerEvents=1;fontSize=15;" parent="gSTcRpvYbXPPoBZ5fAX7-108" vertex="1">
          <mxGeometry x="315" width="105" height="30" as="geometry">
            <mxRectangle width="105" height="30" as="alternateBounds" />
          </mxGeometry>
        </mxCell>
        <mxCell id="IY9oTwFc11nfq3ERBN3V-1" value="" style="endArrow=classic;html=1;rounded=0;exitX=0.844;exitY=1.016;exitDx=0;exitDy=0;exitPerimeter=0;entryX=0.067;entryY=1.014;entryDx=0;entryDy=0;entryPerimeter=0;fontSize=15;" edge="1" parent="1" source="gSTcRpvYbXPPoBZ5fAX7-43" target="su5PDg1l_TLm0L7Ap9I_-45">
          <mxGeometry width="50" height="50" relative="1" as="geometry">
            <mxPoint x="550" y="2559.130434782609" as="sourcePoint" />
            <mxPoint x="570" y="2510" as="targetPoint" />
            <Array as="points">
              <mxPoint x="398" y="2630" />
              <mxPoint x="770" y="2630" />
              <mxPoint x="770" y="2460" />
              <mxPoint x="770" y="2250" />
              <mxPoint x="500" y="2250" />
              <mxPoint x="216" y="2250" />
            </Array>
          </mxGeometry>
        </mxCell>
        <mxCell id="IY9oTwFc11nfq3ERBN3V-2" value="" style="endArrow=classic;html=1;rounded=0;exitX=0.285;exitY=1.001;exitDx=0;exitDy=0;exitPerimeter=0;entryX=0.1;entryY=0.954;entryDx=0;entryDy=0;entryPerimeter=0;fontSize=15;" edge="1" parent="1" source="gSTcRpvYbXPPoBZ5fAX7-74" target="gSTcRpvYbXPPoBZ5fAX7-51">
          <mxGeometry width="50" height="50" relative="1" as="geometry">
            <mxPoint x="520" y="2890" as="sourcePoint" />
            <mxPoint x="570" y="2840" as="targetPoint" />
            <Array as="points">
              <mxPoint x="221" y="2900" />
              <mxPoint x="900" y="2900" />
              <mxPoint x="900" y="2720" />
              <mxPoint x="560" y="2720" />
              <mxPoint x="221" y="2720" />
            </Array>
          </mxGeometry>
        </mxCell>
        <mxCell id="IY9oTwFc11nfq3ERBN3V-9" value="shift" style="ellipse;whiteSpace=wrap;html=1;fontSize=14;" vertex="1" parent="1">
          <mxGeometry x="490" y="890" width="100" height="30" as="geometry" />
        </mxCell>
        <mxCell id="IY9oTwFc11nfq3ERBN3V-11" value="" style="endArrow=none;html=1;rounded=0;exitX=0.5;exitY=0;exitDx=0;exitDy=0;entryX=0.5;entryY=1;entryDx=0;entryDy=0;fontSize=14;" edge="1" parent="1" source="IY9oTwFc11nfq3ERBN3V-25" target="IY9oTwFc11nfq3ERBN3V-9">
          <mxGeometry width="50" height="50" relative="1" as="geometry">
            <mxPoint x="532.5" y="950" as="sourcePoint" />
            <mxPoint x="165" y="930" as="targetPoint" />
          </mxGeometry>
        </mxCell>
        <mxCell id="IY9oTwFc11nfq3ERBN3V-18" value="" style="endArrow=none;html=1;rounded=0;exitX=0;exitY=0.5;exitDx=0;exitDy=0;entryX=1;entryY=1;entryDx=0;entryDy=0;fontSize=14;" edge="1" parent="1" source="IY9oTwFc11nfq3ERBN3V-28" target="Pghm_PCXs0bWWb-cuDt3-3">
          <mxGeometry width="50" height="50" relative="1" as="geometry">
            <mxPoint x="305" y="1000" as="sourcePoint" />
            <mxPoint x="260" y="997" as="targetPoint" />
          </mxGeometry>
        </mxCell>
        <mxCell id="IY9oTwFc11nfq3ERBN3V-19" value="" style="endArrow=none;html=1;rounded=0;exitX=1;exitY=0.5;exitDx=0;exitDy=0;entryX=0;entryY=1;entryDx=0;entryDy=0;fontSize=14;" edge="1" parent="1" source="IY9oTwFc11nfq3ERBN3V-28" target="IY9oTwFc11nfq3ERBN3V-25">
          <mxGeometry width="50" height="50" relative="1" as="geometry">
            <mxPoint x="455" y="1000" as="sourcePoint" />
            <mxPoint x="487.5" y="990" as="targetPoint" />
          </mxGeometry>
        </mxCell>
        <mxCell id="IY9oTwFc11nfq3ERBN3V-20" value="（0,N）" style="text;strokeColor=none;fillColor=none;spacingLeft=4;spacingRight=4;overflow=hidden;rotatable=0;points=[[0,0.5],[1,0.5]];portConstraint=eastwest;fontSize=14;whiteSpace=wrap;html=1;" vertex="1" parent="1">
          <mxGeometry x="270" y="990" width="50" height="30" as="geometry" />
        </mxCell>
        <mxCell id="IY9oTwFc11nfq3ERBN3V-21" value="（1,1）" style="text;strokeColor=none;fillColor=none;spacingLeft=4;spacingRight=4;overflow=hidden;rotatable=0;points=[[0,0.5],[1,0.5]];portConstraint=eastwest;fontSize=14;whiteSpace=wrap;html=1;" vertex="1" parent="1">
          <mxGeometry x="435" y="975" width="50" height="30" as="geometry" />
        </mxCell>
        <mxCell id="IY9oTwFc11nfq3ERBN3V-23" value="&lt;font style=&quot;font-size: 14px;&quot;&gt;status&lt;/font&gt;" style="ellipse;whiteSpace=wrap;html=1;" vertex="1" parent="1">
          <mxGeometry x="305" y="630" width="80" height="30" as="geometry" />
        </mxCell>
        <mxCell id="IY9oTwFc11nfq3ERBN3V-24" value="" style="endArrow=none;html=1;rounded=0;exitX=0.5;exitY=1;exitDx=0;exitDy=0;entryX=0.5;entryY=0;entryDx=0;entryDy=0;" edge="1" parent="1" target="IY9oTwFc11nfq3ERBN3V-23" source="Pghm_PCXs0bWWb-cuDt3-1">
          <mxGeometry width="50" height="50" relative="1" as="geometry">
            <mxPoint x="520" y="665" as="sourcePoint" />
            <mxPoint x="355" y="595" as="targetPoint" />
          </mxGeometry>
        </mxCell>
        <mxCell id="IY9oTwFc11nfq3ERBN3V-25" value="&lt;font style=&quot;font-size: 13px;&quot;&gt;MENTOR&lt;/font&gt;&lt;div&gt;&lt;font style=&quot;font-size: 13px;&quot;&gt;_SHIFT&lt;/font&gt;&lt;/div&gt;" style="shape=ext;margin=3;double=1;whiteSpace=wrap;html=1;align=center;fontSize=14;" vertex="1" parent="1">
          <mxGeometry x="490" y="950" width="100" height="40" as="geometry" />
        </mxCell>
        <mxCell id="IY9oTwFc11nfq3ERBN3V-28" value="&lt;font style=&quot;font-size: 15px;&quot;&gt;TAKE&lt;/font&gt;" style="shape=rhombus;double=1;perimeter=rhombusPerimeter;whiteSpace=wrap;html=1;align=center;fontSize=14;" vertex="1" parent="1">
          <mxGeometry x="325" y="975" width="120" height="60" as="geometry" />
        </mxCell>
        <mxCell id="IY9oTwFc11nfq3ERBN3V-34" style="edgeStyle=orthogonalEdgeStyle;rounded=0;orthogonalLoop=1;jettySize=auto;html=1;exitX=0.836;exitY=0.988;exitDx=0;exitDy=0;exitPerimeter=0;entryX=0.089;entryY=1.015;entryDx=0;entryDy=0;entryPerimeter=0;fontSize=15;" edge="1" parent="1" source="gSTcRpvYbXPPoBZ5fAX7-90" target="su5PDg1l_TLm0L7Ap9I_-122">
          <mxGeometry relative="1" as="geometry">
            <Array as="points">
              <mxPoint x="320" y="2980" />
              <mxPoint x="820" y="2980" />
              <mxPoint x="820" y="2450" />
              <mxPoint x="210" y="2450" />
            </Array>
            <mxPoint x="320" y="3110" as="sourcePoint" />
            <mxPoint x="280" y="2590" as="targetPoint" />
          </mxGeometry>
        </mxCell>
        <mxCell id="IY9oTwFc11nfq3ERBN3V-38" style="edgeStyle=orthogonalEdgeStyle;rounded=0;orthogonalLoop=1;jettySize=auto;html=1;entryX=0.097;entryY=0.993;entryDx=0;entryDy=0;entryPerimeter=0;exitX=0.263;exitY=1.032;exitDx=0;exitDy=0;exitPerimeter=0;fontSize=15;" edge="1" parent="1" source="gSTcRpvYbXPPoBZ5fAX7-90" target="su5PDg1l_TLm0L7Ap9I_-116">
          <mxGeometry relative="1" as="geometry">
            <Array as="points">
              <mxPoint x="217" y="3000" />
              <mxPoint x="860" y="3000" />
              <mxPoint x="860" y="2350" />
              <mxPoint x="219" y="2350" />
            </Array>
            <mxPoint x="218" y="3091" as="sourcePoint" />
            <mxPoint x="110" y="2450" as="targetPoint" />
          </mxGeometry>
        </mxCell>
        <mxCell id="IY9oTwFc11nfq3ERBN3V-40" style="edgeStyle=orthogonalEdgeStyle;rounded=0;orthogonalLoop=1;jettySize=auto;html=1;entryX=0.041;entryY=0.989;entryDx=0;entryDy=0;entryPerimeter=0;exitX=0.298;exitY=1.059;exitDx=0;exitDy=0;exitPerimeter=0;fontSize=15;" edge="1" parent="1" source="gSTcRpvYbXPPoBZ5fAX7-103" target="su5PDg1l_TLm0L7Ap9I_-45">
          <mxGeometry relative="1" as="geometry">
            <Array as="points">
              <mxPoint x="225" y="3072" />
              <mxPoint x="225" y="3090" />
              <mxPoint x="867" y="3090" />
              <mxPoint x="867" y="2260" />
              <mxPoint x="199" y="2260" />
              <mxPoint x="199" y="2230" />
            </Array>
            <mxPoint x="225" y="3170" as="sourcePoint" />
            <mxPoint x="225" y="2411" as="targetPoint" />
          </mxGeometry>
        </mxCell>
        <mxCell id="IY9oTwFc11nfq3ERBN3V-42" style="edgeStyle=orthogonalEdgeStyle;rounded=0;orthogonalLoop=1;jettySize=auto;html=1;entryX=0.176;entryY=1.004;entryDx=0;entryDy=0;entryPerimeter=0;exitX=0.688;exitY=1.009;exitDx=0;exitDy=0;exitPerimeter=0;fontSize=15;" edge="1" parent="1" source="gSTcRpvYbXPPoBZ5fAX7-103" target="su5PDg1l_TLm0L7Ap9I_-122">
          <mxGeometry relative="1" as="geometry">
            <Array as="points">
              <mxPoint x="294" y="3080" />
              <mxPoint x="880" y="3080" />
              <mxPoint x="880" y="2440" />
              <mxPoint x="249" y="2440" />
            </Array>
            <mxPoint x="294" y="3170" as="sourcePoint" />
            <mxPoint x="294" y="2450" as="targetPoint" />
          </mxGeometry>
        </mxCell>
        <mxCell id="IY9oTwFc11nfq3ERBN3V-47" value="" style="edgeStyle=elbowEdgeStyle;elbow=vertical;endArrow=classic;html=1;curved=0;rounded=0;endSize=8;startSize=8;exitX=0.193;exitY=0.99;exitDx=0;exitDy=0;exitPerimeter=0;entryX=0.905;entryY=1.092;entryDx=0;entryDy=0;entryPerimeter=0;fontSize=15;" edge="1" parent="1" source="su5PDg1l_TLm0L7Ap9I_-128" target="su5PDg1l_TLm0L7Ap9I_-122">
          <mxGeometry width="50" height="50" relative="1" as="geometry">
            <mxPoint x="440" y="2710" as="sourcePoint" />
            <mxPoint x="490" y="2660" as="targetPoint" />
            <Array as="points">
              <mxPoint x="400" y="2540" />
            </Array>
          </mxGeometry>
        </mxCell>
      </root>
    </mxGraphModel>
  </diagram>
</mxfile>
